<svg width="37" height="33" viewBox="0 0 37 33" fill="none" xmlns="http://www.w3.org/2000/svg">
<path d="M30.7337 -3.52002H5.74423C2.59958 -3.52002 0 -0.920439 0 2.22422V27.2557C0 30.4003 2.59958 32.9999 5.74423 32.9999H30.7337C33.8784 32.9999 36.478 30.4003 36.478 27.2557V2.26614C36.478 -0.920439 33.9203 -3.52002 30.7337 -3.52002Z" fill="#EAEBC2"/>
<path d="M30.7338 -3.52002H5.74424C2.59958 -3.52002 0 -0.920439 0 2.22421V6.71059H36.5199V2.26614C36.478 -0.920439 33.9203 -3.52002 30.7338 -3.52002Z" fill="#48887B"/>
<path d="M7.29561 14.3002C8.29134 14.3002 9.09855 13.493 9.09855 12.4973C9.09855 11.5015 8.29134 10.6943 7.29561 10.6943C6.29988 10.6943 5.49268 11.5015 5.49268 12.4973C5.49268 13.493 6.29988 14.3002 7.29561 14.3002Z" fill="#D1C9A6"/>
<path d="M14.591 14.3002C15.5868 14.3002 16.394 13.493 16.394 12.4973C16.394 11.5015 15.5868 10.6943 14.591 10.6943C13.5953 10.6943 12.7881 11.5015 12.7881 12.4973C12.7881 13.493 13.5953 14.3002 14.591 14.3002Z" fill="#D1C9A6"/>
<path d="M21.8869 14.3002C22.8827 14.3002 23.6899 13.493 23.6899 12.4973C23.6899 11.5015 22.8827 10.6943 21.8869 10.6943C20.8912 10.6943 20.084 11.5015 20.084 12.4973C20.084 13.493 20.8912 14.3002 21.8869 14.3002Z" fill="#D1C9A6"/>
<path d="M29.1823 14.3002C30.1781 14.3002 30.9853 13.493 30.9853 12.4973C30.9853 11.5015 30.1781 10.6943 29.1823 10.6943C28.1866 10.6943 27.3794 11.5015 27.3794 12.4973C27.3794 13.493 28.1866 14.3002 29.1823 14.3002Z" fill="#D1C9A6"/>
<path d="M7.29561 21.5956C8.29134 21.5956 9.09855 20.7884 9.09855 19.7927C9.09855 18.7969 8.29134 17.9897 7.29561 17.9897C6.29988 17.9897 5.49268 18.7969 5.49268 19.7927C5.49268 20.7884 6.29988 21.5956 7.29561 21.5956Z" fill="#D1C9A6"/>
<path d="M14.591 21.5956C15.5868 21.5956 16.394 20.7884 16.394 19.7927C16.394 18.7969 15.5868 17.9897 14.591 17.9897C13.5953 17.9897 12.7881 18.7969 12.7881 19.7927C12.7881 20.7884 13.5953 21.5956 14.591 21.5956Z" fill="#D1C9A6"/>
<path d="M21.8869 21.5956C22.8827 21.5956 23.6899 20.7884 23.6899 19.7927C23.6899 18.7969 22.8827 17.9897 21.8869 17.9897C20.8912 17.9897 20.084 18.7969 20.084 19.7927C20.084 20.7884 20.8912 21.5956 21.8869 21.5956Z" fill="#D1C9A6"/>
<path d="M29.1823 21.5956C30.1781 21.5956 30.9853 20.7884 30.9853 19.7927C30.9853 18.7969 30.1781 17.9897 29.1823 17.9897C28.1866 17.9897 27.3794 18.7969 27.3794 19.7927C27.3794 20.7884 28.1866 21.5956 29.1823 21.5956Z" fill="#D1C9A6"/>
<path d="M7.29561 28.8075C8.29134 28.8075 9.09855 28.0003 9.09855 27.0046C9.09855 26.0089 8.29134 25.2017 7.29561 25.2017C6.29988 25.2017 5.49268 26.0089 5.49268 27.0046C5.49268 28.0003 6.29988 28.8075 7.29561 28.8075Z" fill="#D1C9A6"/>
<path d="M14.591 28.8075C15.5868 28.8075 16.394 28.0003 16.394 27.0046C16.394 26.0089 15.5868 25.2017 14.591 25.2017C13.5953 25.2017 12.7881 26.0089 12.7881 27.0046C12.7881 28.0003 13.5953 28.8075 14.591 28.8075Z" fill="#D1C9A6"/>
<path d="M21.8869 28.8075C22.8827 28.8075 23.6899 28.0003 23.6899 27.0046C23.6899 26.0089 22.8827 25.2017 21.8869 25.2017C20.8912 25.2017 20.084 26.0089 20.084 27.0046C20.084 28.0003 20.8912 28.8075 21.8869 28.8075Z" fill="#D1C9A6"/>
<path d="M29.1823 28.807C30.1781 28.807 30.9853 27.9998 30.9853 27.0041C30.9853 26.0084 30.1781 25.2012 29.1823 25.2012C28.1866 25.2012 27.3794 26.0084 27.3794 27.0041C27.3794 27.9998 28.1866 28.807 29.1823 28.807Z" fill="#48887B"/>
<path d="M9.3083 -7C8.84709 -7 8.46973 -6.62264 8.46973 -6.16143V-0.836478C8.46973 -0.375262 8.84709 0.00209665 9.3083 0.00209665C9.76952 0.00209665 10.1469 -0.375262 10.1469 -0.836478V-6.16143C10.1469 -6.62264 9.76952 -7 9.3083 -7Z" fill="#402810"/>
<path d="M27.1701 -7C26.7089 -7 26.3315 -6.62264 26.3315 -6.16143V-0.836478C26.3315 -0.375262 26.7089 0.00209665 27.1701 0.00209665C27.6313 0.00209665 28.0087 -0.375262 28.0087 -0.836478V-6.16143C28.0087 -6.62264 27.6313 -7 27.1701 -7Z" fill="#402810"/>
</svg>
