<svg width="30" height="30" viewBox="0 0 30 30" fill="none" xmlns="http://www.w3.org/2000/svg">
<g clip-path="url(#clip0)">
<path d="M29.7298 7.27105L15.2677 21.7342C14.9037 22.096 14.3146 22.096 13.9506 21.7342L13.6598 21.4434L13.3442 21.1278L11.9786 19.7622L11.9592 19.7331L5.705 13.4304C5.34313 13.0686 5.34313 12.4773 5.705 12.1154L7.67592 10.1467C8.03995 9.78155 8.62692 9.78155 8.99094 10.1467L14.6161 15.8139L26.4417 3.9851C26.8057 3.62215 27.3948 3.62215 27.7567 3.9851L29.7298 5.95818C30.0906 6.31898 30.0906 6.90917 29.7298 7.27105Z" fill="#48887B"/>
<path d="M23.4733 24.3545C23.4733 25.4024 22.6193 26.2564 21.5692 26.2564H3.80722C2.75714 26.2564 1.90307 25.4024 1.90307 24.3545V5.6447C1.90307 4.59678 2.75714 3.74271 3.80722 3.74271H21.5692C22.6193 3.74271 23.4733 4.59678 23.4733 5.6447L24.8261 4.39322C25.0447 2.85311 23.4884 1.8418 21.5692 1.8418H3.80722C1.70382 1.8418 0 3.54347 0 5.6447V24.3545C0 26.4557 1.70382 28.1595 3.80722 28.1595H21.5692C23.6726 28.1595 25.3764 26.4557 25.3764 24.3545V13.201L23.4723 15.2731L23.4733 24.3545Z" fill="#48887B"/>
</g>
<defs>
<clipPath id="clip0">
<rect width="30" height="30" fill="white"/>
</clipPath>
</defs>
</svg>
