<svg width="30" height="30" viewBox="0 0 30 30" fill="none" xmlns="http://www.w3.org/2000/svg">
<path d="M23.4733 24.3545C23.4733 25.4024 22.6193 26.2564 21.5692 26.2564H3.80722C2.75714 26.2564 1.90307 25.4024 1.90307 24.3545V5.6447C1.90307 4.59678 2.75714 3.74271 3.80722 3.74271H21.5692C22.6193 3.74271 23.4733 4.59678 23.4733 5.6447L24.8261 4.39322C25.0447 2.85311 23.4884 1.8418 21.5692 1.8418H3.80722C1.70382 1.8418 0 3.54347 0 5.6447V24.3545C0 26.4557 1.70382 28.1595 3.80722 28.1595H21.5692C23.6726 28.1595 25.3764 26.4557 25.3764 24.3545V13.201L23.4723 15.2731L23.4733 24.3545Z" fill="#48887B"/>
</svg>
