<svg width="40" height="40" viewBox="0 0 40 40" fill="none" xmlns="http://www.w3.org/2000/svg">
<path d="M20 40C31.0457 40 40 31.0457 40 20C40 8.9543 31.0457 0 20 0C8.9543 0 0 8.9543 0 20C0 31.0457 8.9543 40 20 40Z" fill="#48887B"/>
<path d="M20.0002 35.4168C28.5146 35.4168 35.4168 28.5146 35.4168 20.0002C35.4168 11.4858 28.5146 4.5835 20.0002 4.5835C11.4858 4.5835 4.5835 11.4858 4.5835 20.0002C4.5835 28.5146 11.4858 35.4168 20.0002 35.4168Z" fill="#EAEBC2"/>
<path d="M19.9998 8.33333C20.4582 8.33333 20.8332 7.95833 20.8332 7.5V4.58333C20.8332 4.125 20.4582 3.75 19.9998 3.75C19.5415 3.75 19.1665 4.125 19.1665 4.58333V7.5C19.1665 7.95833 19.5415 8.33333 19.9998 8.33333Z" fill="#402810"/>
<path d="M32.4998 20.8332H35.4582C35.9165 20.8332 36.2915 20.4582 36.2915 19.9998C36.2915 19.5415 35.9165 19.1665 35.4582 19.1665H32.4998C32.0415 19.1665 31.6665 19.5415 31.6665 19.9998C31.6665 20.4582 32.0415 20.8332 32.4998 20.8332Z" fill="#402810"/>
<path d="M20.8332 35.4165V32.4998C20.8332 32.0415 20.4582 31.6665 19.9998 31.6665C19.5415 31.6665 19.1665 32.0415 19.1665 32.4998V35.4582C19.1665 35.9165 19.5415 36.2915 19.9998 36.2915C20.4582 36.2915 20.8332 35.8748 20.8332 35.4165Z" fill="#402810"/>
<path d="M4.58333 20.8332H7.5C7.95833 20.8332 8.33333 20.4582 8.33333 19.9998C8.33333 19.5415 7.95833 19.1665 7.5 19.1665H4.58333C4.125 19.1665 3.75 19.5415 3.75 19.9998C3.75 20.4582 4.125 20.8332 4.58333 20.8332Z" fill="#402810"/>
<path d="M12.4583 20.8332H17.5C17.625 21.2082 17.8333 21.5832 18.125 21.8748C18.5833 22.3332 19.25 22.6248 20 22.6248C20.7083 22.6248 21.375 22.3332 21.875 21.8748C22.3333 21.4165 22.625 20.7498 22.625 19.9998C22.625 19.2915 22.3333 18.6248 21.875 18.1248C21.5833 17.8332 21.25 17.6248 20.8333 17.4998V10.7498C20.8333 10.2915 20.4583 9.9165 20 9.9165C19.5417 9.9165 19.1667 10.2915 19.1667 10.7498V17.4998C18.7917 17.6248 18.4583 17.8332 18.2083 18.0832L18.1667 18.1248C17.875 18.4165 17.6667 18.7498 17.5417 19.1665H12.4583C12 19.1665 11.625 19.5415 11.625 19.9998C11.625 20.4582 12 20.8332 12.4583 20.8332ZM20.6667 20.6665C20.5 20.8332 20.25 20.9582 20 20.9582C19.75 20.9582 19.5 20.8332 19.3333 20.6665C19.1667 20.4998 19.0417 20.2498 19.0417 19.9998C19.0417 19.7498 19.1667 19.4998 19.3333 19.3332C19.3333 19.3332 19.3333 19.2915 19.375 19.2915C19.5417 19.1248 19.7917 19.0415 20.0417 19.0415C20.2917 19.0415 20.5417 19.1665 20.7083 19.3332C20.875 19.4998 21 19.7498 21 19.9998C20.9583 20.2498 20.875 20.4998 20.6667 20.6665Z" fill="#402810"/>
</svg>
