<svg width="150" height="150" viewBox="0 0 150 150" fill="none" xmlns="http://www.w3.org/2000/svg">
<path d="M124.128 12.416H26.6589C21.1782 12.416 16.7195 16.875 16.7195 22.3558V95.1194C16.7195 100.601 21.1782 105.059 26.6589 105.059H124.128C129.609 105.059 134.067 100.601 134.067 95.1194V22.3558C134.068 16.875 129.609 12.416 124.128 12.416ZM110.396 53.5966C108.774 63.4761 96.9754 74.5808 87.4707 83.5219C87.4707 83.5219 82.7278 88.2832 81.3033 89.5046C80.2355 90.4237 77.9099 92.2733 75.395 92.2733C72.876 92.2733 70.5554 90.4237 69.4813 89.5046C68.0585 88.2832 63.3143 83.5219 63.3143 83.5219C53.8096 74.5808 42.0115 63.4811 40.3885 53.5966C39.2517 46.6114 40.3617 40.8514 43.6944 36.4778C47.0559 32.0623 52.1736 29.5428 59.3393 28.7757C60.0327 28.7062 60.6566 28.674 61.286 28.674C66.348 28.674 71.4657 30.5599 75.3904 33.7502C79.3206 30.5599 84.4333 28.674 89.5049 28.674C90.1284 28.674 90.7573 28.7062 91.4465 28.7757C98.6122 29.5428 103.725 32.0623 107.091 36.4778C110.425 40.8514 111.534 46.6114 110.396 53.5966Z" fill="#F7F1E6"/>
<path d="M132.929 122.312H16.2257C9.20657 122.312 3.51648 128.002 3.51648 135.021V137.291C3.51648 144.31 9.20657 150 16.2257 150H132.929C139.948 150 145.637 144.31 145.637 137.291V135.021C145.637 128.002 139.948 122.312 132.929 122.312ZM78.8431 144.509H18.8419C14.681 144.509 11.3086 141.136 11.3086 136.975V135.63C11.3086 131.47 14.6814 128.097 18.8419 128.097H78.8431V144.509Z" fill="#2B3237"/>
<path d="M11.3087 135.63V136.975C11.3087 141.137 14.6815 144.509 18.842 144.509H78.8432V128.097H18.842C14.6815 128.097 11.3087 131.47 11.3087 135.63Z" fill="#F7F1E6"/>
<path d="M91.4467 28.7756C90.7575 28.7061 90.129 28.6738 89.5051 28.6738C84.4334 28.6738 79.3208 30.5598 75.3906 33.7501C71.4658 30.5598 66.3482 28.6738 61.2862 28.6738C60.6564 28.6738 60.0329 28.7061 59.3395 28.7756C52.1738 29.5427 47.0561 32.0622 43.6946 36.4777C40.3619 40.8513 39.2523 46.6113 40.3887 53.5965C42.0117 63.4806 53.8098 74.5806 63.3145 83.5217C63.3145 83.5217 68.0582 88.2831 69.4815 89.5045C70.5555 90.4236 72.8761 92.2731 75.3952 92.2731C77.9101 92.2731 80.2361 90.4236 81.3034 89.5045C82.7275 88.2831 87.4709 83.5217 87.4709 83.5217C96.9756 74.5806 108.774 63.476 110.397 53.5965C111.534 46.6113 110.424 40.8513 107.091 36.4777C103.725 32.0622 98.6124 29.5427 91.4467 28.7756Z" fill="#48887B"/>
<path d="M124.128 0H26.6587C14.3318 0 4.30243 10.0285 4.30243 22.3563V95.1199C4.30243 107.447 14.3314 117.476 26.6587 117.476H124.128C136.455 117.476 146.484 107.447 146.484 95.1199V22.3559C146.484 10.0285 136.455 0 124.128 0ZM134.067 95.1199C134.067 100.601 129.609 105.059 124.128 105.059H26.6587C21.178 105.059 16.7194 100.601 16.7194 95.1199V22.3559C16.7194 16.8751 21.178 12.4161 26.6587 12.4161H124.128C129.608 12.4161 134.067 16.8751 134.067 22.3559V95.1199H134.067Z" fill="#2B3237"/>
</svg>
