<svg width="50" height="48" viewBox="0 0 50 48" fill="none" xmlns="http://www.w3.org/2000/svg">
<path d="M35.1047 0H14.8953C6.68198 0 0 6.33097 0 14.1128V33.2606C0 41.0424 6.68198 47.3734 14.8953 47.3734H35.1047C43.318 47.3734 50 41.0424 50 33.2606V14.1128C49.9999 6.33097 43.3179 0 35.1047 0ZM44.97 33.2606C44.97 38.4228 40.5531 42.6077 35.1047 42.6077H14.8953C9.44688 42.6077 5.03 38.4228 5.03 33.2606V14.1128C5.03 8.95053 9.44688 4.76576 14.8953 4.76576H35.1047C40.5531 4.76576 44.97 8.95053 44.97 14.1128V33.2606Z" fill="url(#paint0_linear)"/>
<path d="M25 11.4341C17.8694 11.4341 12.0682 16.9305 12.0682 23.6864C12.0682 30.4423 17.8694 35.9388 25 35.9388C32.1306 35.9388 37.9318 30.4424 37.9318 23.6864C37.9318 16.9304 32.1306 11.4341 25 11.4341ZM25 31.1732C20.6359 31.1732 17.0982 27.8213 17.0982 23.6865C17.0982 19.5517 20.636 16.1998 25 16.1998C29.3641 16.1998 32.9018 19.5517 32.9018 23.6865C32.9018 27.8212 29.364 31.1732 25 31.1732Z" fill="url(#paint1_linear)"/>
<path d="M37.9569 14.462C39.6683 14.462 41.0556 13.1476 41.0556 11.5262C41.0556 9.90476 39.6683 8.59033 37.9569 8.59033C36.2455 8.59033 34.8582 9.90476 34.8582 11.5262C34.8582 13.1476 36.2455 14.462 37.9569 14.462Z" fill="url(#paint2_linear)"/>
<defs>
<linearGradient id="paint0_linear" x1="25" y1="47.2355" x2="25" y2="0.367957" gradientUnits="userSpaceOnUse">
<stop stop-color="#E09B3D"/>
<stop offset="0.3" stop-color="#C74C4D"/>
<stop offset="0.6" stop-color="#C21975"/>
<stop offset="1" stop-color="#7024C4"/>
</linearGradient>
<linearGradient id="paint1_linear" x1="25" y1="47.2353" x2="25" y2="0.36781" gradientUnits="userSpaceOnUse">
<stop stop-color="#E09B3D"/>
<stop offset="0.3" stop-color="#C74C4D"/>
<stop offset="0.6" stop-color="#C21975"/>
<stop offset="1" stop-color="#7024C4"/>
</linearGradient>
<linearGradient id="paint2_linear" x1="37.9569" y1="47.2344" x2="37.9569" y2="0.368228" gradientUnits="userSpaceOnUse">
<stop stop-color="#E09B3D"/>
<stop offset="0.3" stop-color="#C74C4D"/>
<stop offset="0.6" stop-color="#C21975"/>
<stop offset="1" stop-color="#7024C4"/>
</linearGradient>
</defs>
</svg>
