<svg width="150" height="150" viewBox="0 0 150 150" fill="none" xmlns="http://www.w3.org/2000/svg">
<g clip-path="url(#clip0)">
<path d="M18.5188 129.146L7.72644 139.938C5.42452 142.24 5.42452 145.972 7.72644 148.274C10.0284 150.575 13.7598 150.575 16.0617 148.274L26.8541 137.481C25.1225 136.583 23.4961 135.41 22.0435 133.957C20.59 132.503 19.4168 130.878 18.5188 129.146Z" fill="#48887B"/>
<path d="M151.542 24.4564C156.849 18.7478 156.727 9.81828 151.17 4.26156C145.614 -1.29474 136.684 -1.41689 130.976 3.89015L130.966 3.88025L109.553 25.2929L130.138 45.8786L151.551 24.4659L151.542 24.4564Z" fill="#1B2327"/>
<path d="M21.7856 106.397C15.6285 112.554 14.4548 121.806 18.261 129.145C19.1589 130.877 20.3326 132.503 21.7856 133.956C23.2387 135.409 24.8646 136.582 26.5962 137.48C33.9353 141.286 43.1867 140.113 49.3443 133.956L116.513 66.8562L88.9664 39.2583L21.7856 106.397Z" fill="#48887B"/>
<path d="M101.211 16.6419C97.5392 12.9698 91.5855 12.9694 87.913 16.6419L83.5011 21.0538C79.8287 24.7258 79.8287 30.6795 83.5011 34.352L121.389 72.24C125.061 75.912 131.015 75.912 134.688 72.24L139.1 67.8276C142.772 64.1556 142.772 58.2019 139.1 54.5295L130.448 45.8781L109.863 25.2924L101.211 16.6419Z" fill="#2B3237"/>
</g>
<defs>
<clipPath id="clip0">
<rect width="150" height="150" fill="white"/>
</clipPath>
</defs>
</svg>
