<svg width="30" height="24" viewBox="0 0 30 24" fill="none" xmlns="http://www.w3.org/2000/svg">
<path d="M26.3377 0.584961H3.66853C1.64494 0.584961 0 2.2299 0 4.25349V19.747C0 21.7706 1.64494 23.4155 3.66853 23.4155H26.3315C28.3551 23.4155 30 21.7706 30 19.747V4.2597C30.0062 2.23611 28.3613 0.584961 26.3377 0.584961ZM28.3302 19.747C28.3302 20.8457 27.4364 21.7395 26.3377 21.7395H3.66853C2.56983 21.7395 1.67598 20.8457 1.67598 19.747V4.2597C1.67598 3.161 2.56983 2.26715 3.66853 2.26715H26.3315C27.4302 2.26715 28.324 3.161 28.324 4.2597V19.747H28.3302Z" fill="white"/>
<path d="M18.9196 11.8079L26.2567 5.22814C26.5981 4.91777 26.6291 4.39015 26.3188 4.04254C26.0084 3.70114 25.4808 3.6701 25.1332 3.98047L15.0152 13.0618L13.0413 11.2989C13.0351 11.2927 13.0289 11.2865 13.0289 11.2803C12.9854 11.2368 12.942 11.1996 12.8923 11.1623L4.86005 3.97426C4.51244 3.66389 3.98482 3.69493 3.67445 4.04254C3.36409 4.39015 3.39512 4.91777 3.74273 5.22814L11.1667 11.8638L3.77377 18.7849C3.43858 19.1015 3.41995 19.6291 3.73653 19.9705C3.90413 20.1443 4.12759 20.2375 4.35105 20.2375C4.55589 20.2375 4.76074 20.163 4.92213 20.014L12.4268 12.9935L14.4628 14.8122C14.6242 14.955 14.8228 15.0233 15.0214 15.0233C15.2201 15.0233 15.4249 14.9488 15.5801 14.806L17.672 12.9314L25.1332 20.0202C25.2946 20.1754 25.5056 20.2499 25.7105 20.2499C25.9339 20.2499 26.1512 20.163 26.3188 19.9892C26.6353 19.654 26.6229 19.1201 26.2877 18.8036L18.9196 11.8079Z" fill="white"/>
</svg>
