<svg width="30" height="30" viewBox="0 0 30 30" fill="none" xmlns="http://www.w3.org/2000/svg">
<path d="M25.9571 0H4.04256C1.80996 0 0 1.80989 0 4.04256V25.9573C0 28.19 1.80989 29.9999 4.04256 29.9999H14.8507L14.8692 19.2795H12.084C11.7221 19.2795 11.4283 18.9869 11.4269 18.6249L11.4135 15.1693C11.4122 14.8054 11.7068 14.5096 12.0707 14.5096H14.8508V11.1706C14.8508 7.29576 17.2173 5.18587 20.674 5.18587H23.5104C23.8733 5.18587 24.1676 5.48008 24.1676 5.84305V8.75684C24.1676 9.11967 23.8735 9.4138 23.5108 9.41402L21.7701 9.41483C19.8903 9.41483 19.5263 10.3081 19.5263 11.619V14.5097H23.6569C24.0505 14.5097 24.3558 14.8534 24.3094 15.2442L23.8999 18.6998C23.8607 19.0305 23.5803 19.2797 23.2473 19.2797H19.5447L19.5263 30H25.9573C28.1899 30 29.9998 28.1901 29.9998 25.9575V4.04256C29.9997 1.80989 28.1898 0 25.9571 0Z" fill="white"/>
</svg>
