<svg width="30" height="30" viewBox="0 0 30 30" fill="none" xmlns="http://www.w3.org/2000/svg">
<g clip-path="url(#clip0)">
<path d="M30 14.9999C30 13.1651 29.67 11.4075 29.067 9.78258L15 9.13037L0.932988 9.78252C0.330059 11.4075 0 13.1651 0 14.9999C0 16.8347 0.330059 18.5924 0.932988 20.2173L15 20.8695L29.067 20.2174C29.67 18.5924 30 16.8347 30 14.9999Z" fill="#0052B4"/>
<path d="M15 29.9999C21.4495 29.9999 26.9476 25.9293 29.067 20.2173H0.932983C3.05238 25.9293 8.55052 29.9999 15 29.9999Z" fill="#FF9811"/>
<path d="M0.932983 9.78264H29.0671C26.9476 4.07062 21.4495 0 15 0C8.55052 0 3.05238 4.07062 0.932983 9.78264Z" fill="#D80027"/>
</g>
<defs>
<clipPath id="clip0">
<rect width="30" height="30" fill="white"/>
</clipPath>
</defs>
</svg>
