<svg width="30" height="30" viewBox="0 0 30 30" fill="none" xmlns="http://www.w3.org/2000/svg">
<g clip-path="url(#clip0)">
<path d="M15 30C23.2843 30 30 23.2843 30 15C30 6.71573 23.2843 0 15 0C6.71573 0 0 6.71573 0 15C0 23.2843 6.71573 30 15 30Z" fill="white"/>
<path d="M29.067 20.2174C29.67 18.5925 30 16.8349 30 15.0001C30 13.1653 29.67 11.4077 29.067 9.78271H0.932988C0.330059 11.4077 0 13.1653 0 15.0001C0 16.8349 0.330059 18.5925 0.932988 20.2174L15 21.5218L29.067 20.2174Z" fill="#0052B4"/>
<path d="M15 29.9999C21.4495 29.9999 26.9476 25.9293 29.067 20.2173H0.932983C3.05238 25.9293 8.55052 29.9999 15 29.9999Z" fill="#D80027"/>
</g>
<defs>
<clipPath id="clip0">
<rect width="30" height="30" fill="white"/>
</clipPath>
</defs>
</svg>
