<svg width="150" height="150" viewBox="0 0 150 150" fill="none" xmlns="http://www.w3.org/2000/svg">
<g clip-path="url(#clip0)">
<path d="M56.1712 26.1767V120.142L8.23446 65.6283C8.23446 65.6283 -10.0077 42.2971 7.81058 24.6909C24.0273 8.66953 46.6262 15.996 56.1712 26.1767Z" fill="#48887B"/>
<path d="M56.1714 26.1767V120.142L104.108 65.6283C104.108 65.6283 122.35 42.2971 104.532 24.6909C88.3152 8.66953 65.7164 15.996 56.1714 26.1767Z" fill="#48887B"/>
<path d="M127.72 109.044L124.39 112.375L129.792 117.777L133.122 114.446L127.72 109.044Z" fill="#25B6D2"/>
<path d="M134.944 112.648L127.987 119.605L143.041 134.659L149.998 127.701L134.944 112.648Z" fill="#25B6D2"/>
<path d="M101.322 120.133C83.087 120.145 68.2948 105.372 68.2831 87.1369C68.2714 68.902 83.0445 54.1099 101.279 54.0982C119.514 54.0864 134.306 68.8596 134.318 87.0944C134.318 87.1015 134.318 87.1085 134.318 87.1155C134.304 105.337 119.543 120.107 101.322 120.133Z" fill="white"/>
<path d="M101.322 55.2778C118.907 55.2638 133.171 69.5093 133.185 87.0941C133.199 104.679 118.954 118.944 101.369 118.958C83.7839 118.972 69.5196 104.726 69.5055 87.1413C69.5055 87.1343 69.5055 87.1249 69.5055 87.1179C69.5173 69.5492 83.7511 55.3036 101.322 55.2778ZM101.322 52.9229C82.4369 52.9088 67.1175 68.2092 67.1034 87.0944C67.0893 105.98 82.3898 121.299 101.275 121.313C120.16 121.327 135.479 106.027 135.493 87.1413C135.493 87.1343 135.493 87.1249 135.493 87.1179C135.498 68.2397 120.2 52.9299 101.322 52.9229Z" fill="#BAC6CC"/>
</g>
<defs>
<clipPath id="clip0">
<rect width="150" height="150" fill="white"/>
</clipPath>
</defs>
</svg>
