<svg width="150" height="150" viewBox="0 0 150 150" fill="none" xmlns="http://www.w3.org/2000/svg">
<path d="M59.4861 50.1327C59.7987 49.2617 60.6748 48.7251 61.593 48.8452C62.5108 48.9646 63.2211 49.7073 63.2999 50.6294L66.4457 87.3826L72.3364 66.1497C72.5773 65.2815 73.3729 64.6852 74.277 64.7079C75.1772 64.7276 75.9494 65.3563 76.1519 66.2338L79.4322 80.4648L85.033 56.9326C85.2517 56.0119 86.0965 55.3815 87.0406 55.4217C87.9858 55.4667 88.7658 56.1781 88.8975 57.115L93.0773 86.9143L94.9511 80.8579C95.2064 80.0336 95.9689 79.4718 96.8317 79.4718H141.16V69.3247C141.16 59.9576 133.565 52.3615 124.193 52.3615H97.2614V25.4292C97.2614 16.0579 89.6675 8.4646 80.2968 8.4646H70.4982H68.9524C59.584 8.4646 51.9857 16.0582 51.9857 25.4292V52.3611H25.0527C15.6889 52.3611 8.09094 59.9573 8.09094 69.3243V79.6879H48.8808L59.4861 50.1327Z" fill="white"/>
<path d="M94.2325 96.4984C93.9595 97.3788 93.1104 97.9535 92.194 97.8787C91.2748 97.8039 90.5303 97.1029 90.4026 96.1894L86.4476 67.993L81.3165 89.5521C81.1053 90.439 80.3127 91.0652 79.4017 91.0652C79.3995 91.0652 79.397 91.0652 79.3945 91.0652C78.4803 91.0616 77.6887 90.4297 77.4833 89.5385L74.0577 74.676L67.315 98.9796C67.0762 99.8381 66.295 100.421 65.4193 100.421C65.3585 100.421 65.2974 100.419 65.2359 100.414C64.2868 100.325 63.5376 99.5705 63.4567 98.621L60.1468 59.9495L52.1198 82.3221C51.8393 83.1047 51.0981 83.6258 50.2669 83.6258H8.35315C9.75218 91.5852 16.697 97.6345 25.0534 97.6345H51.9864V124.567C51.9864 133.938 59.5847 141.535 68.9532 141.535H70.499H80.2976C89.6682 141.535 97.2622 133.938 97.2622 124.567V97.6345H124.194C132.634 97.6345 139.628 91.4755 140.938 83.4093H98.2832L94.2325 96.4984Z" fill="white"/>
<path d="M148.032 79.4717H141.16H96.8321C95.9693 79.4717 95.2065 80.0338 94.9515 80.8578L93.0777 86.9142L88.8979 57.1149C88.7663 56.178 87.9862 55.4666 87.041 55.4216C86.097 55.3814 85.2521 56.0118 85.0335 56.9325L79.4327 80.4647L76.1523 66.2337C75.9498 65.3562 75.1777 64.7275 74.2775 64.7078C73.3733 64.6851 72.5778 65.2818 72.3368 66.1496L66.4461 87.3825L63.3003 50.6293C63.2215 49.7072 62.5112 48.9641 61.5934 48.8451C60.6748 48.725 59.7991 49.2616 59.4866 50.1326L48.882 79.6882H8.09173H1.96872C0.881498 79.6882 0 80.5697 0 81.6573C0 82.7441 0.881139 83.6256 1.96872 83.6256H8.35319H50.2663C51.0978 83.6256 51.8386 83.1045 52.1192 82.3219L60.1462 59.9492L63.456 98.6208C63.5373 99.5703 64.2864 100.325 65.2352 100.413C65.2967 100.418 65.3578 100.421 65.4186 100.421C66.2947 100.421 67.0755 99.8378 67.3143 98.9794L74.057 74.6754L77.4827 89.5379C77.688 90.4294 78.4796 91.061 79.3938 91.0646C79.3963 91.0646 79.3989 91.0646 79.401 91.0646C80.312 91.0646 81.1047 90.4388 81.3158 89.5515L86.4469 67.9928L90.4019 96.1892C90.5296 97.1027 91.2744 97.804 92.1933 97.8785C93.1097 97.9533 93.9589 97.3786 94.2318 96.4981L98.2826 83.4084H140.936H148.032C149.119 83.4084 150 82.5273 150 81.44C150 80.3528 149.12 79.4717 148.032 79.4717Z" fill="#48887B"/>
</svg>
