<svg width="150" height="150" viewBox="0 0 150 150" fill="none" xmlns="http://www.w3.org/2000/svg">
<g clip-path="url(#clip0)">
<path d="M118.485 32.9536H31.4617V54.0472H118.485V32.9536Z" fill="#F2F6F7"/>
<path d="M85.5176 0.000488281H64.424V87.0234H85.5176V0.000488281Z" fill="#F2F6F7"/>
<path d="M86.263 150C86.263 150 74.9052 127.842 96.7465 112.5C118.588 97.1579 124.7 88.6454 124.7 88.6454C124.7 88.6454 136.93 85.2376 131.689 95.4633C128.171 101.991 123.425 107.775 117.711 112.5C117.711 112.5 134.31 109.092 138.678 95.4563C143.047 81.8204 138.678 74.1517 149.162 71.5947C149.162 71.5947 154.402 97.1602 138.678 112.5C122.954 127.84 104.607 133.805 103.733 150H86.263Z" fill="#415E72"/>
<path d="M63.74 150C63.74 150 75.0977 127.842 53.2564 112.5C31.4152 97.1579 25.3004 88.6454 25.3004 88.6454C25.3004 88.6454 13.0707 85.2376 18.3113 95.4633C21.8293 101.991 26.5753 107.775 32.2894 112.5C32.2894 112.5 15.691 109.092 11.3223 95.4563C6.95358 81.8204 11.3223 74.1517 0.838773 71.5947C0.838773 71.5947 -4.40182 97.1602 11.3223 112.5C27.0464 127.84 45.3932 133.805 46.2674 150H63.74Z" fill="#415E72"/>
</g>
<defs>
<clipPath id="clip0">
<rect width="150" height="150" fill="white"/>
</clipPath>
</defs>
</svg>
