<svg width="30" height="30" viewBox="0 0 30 30" fill="none" xmlns="http://www.w3.org/2000/svg">
<path d="M14.7755 4.43408C11.1999 4.43408 8.30127 7.33271 8.30127 10.9083C8.30127 14.484 11.1999 17.3826 14.7755 17.3826C18.3512 17.3826 21.2498 14.484 21.2498 10.9083C21.2457 7.33447 18.3494 4.43817 14.7755 4.43408ZM13.2814 11.4065H12.2854V10.4104H13.2814V11.4065ZM15.7715 11.4065H13.7795V10.4104H15.7715V11.4065ZM17.2657 11.4065H16.2697V10.4104H17.2657V11.4065Z" fill="white"/>
<path d="M14.7755 0.948242C9.00217 0.954868 4.32352 5.63352 4.31689 11.4068C4.31689 16.5828 12.8697 26.8494 14.7755 29.0732C16.6816 26.8488 25.234 16.5808 25.234 11.4068C25.2274 5.63352 20.5489 0.954868 14.7755 0.948242V0.948242ZM14.7755 18.3792C10.6497 18.3792 7.30517 15.0345 7.30517 10.9087C7.30517 6.78292 10.6497 3.43841 14.7755 3.43841C18.9014 3.43841 22.2458 6.78292 22.2458 10.9087C22.2413 15.0325 18.8995 18.3745 14.7755 18.3792Z" fill="white"/>
</svg>
