<svg width="150" height="150" viewBox="0 0 150 150" fill="none" xmlns="http://www.w3.org/2000/svg">
<g clip-path="url(#clip0)">
<path d="M12.3673 80.1235L3.65177 97.8898C3.55449 98.1004 3.46867 98.3167 3.39314 98.5364C1.82078 103.268 2.61611 108.466 5.52967 112.513C8.44323 116.558 13.1226 118.959 18.1086 118.967H33.625V108.623H18.1086C16.4939 108.624 14.9718 107.871 13.9923 106.587C13.0127 105.303 12.6888 103.637 13.1168 102.079L21.7293 84.5717L12.3673 80.1235Z" fill="#7F8C8D"/>
<path d="M116.381 51.728H132.13C136.797 51.7315 141.214 53.8348 144.157 57.4556C147.102 61.0764 148.26 65.8301 147.311 70.3995L136.553 113.717L126.518 111.208L137.225 68.0982C137.489 66.6334 137.092 65.1274 136.139 63.9853C135.16 62.7746 133.686 62.072 132.13 62.072H116.381" fill="#7F8C8D"/>
<path d="M118.966 139.656V111.208H31.0387V139.656C31.0387 145.369 35.6699 150 41.3838 150H108.622C111.878 150 114.944 148.467 116.898 145.863L118.966 139.656Z" fill="#464F5D"/>
<path d="M118.966 111.415V10.35C118.966 4.63614 114.335 0.00488281 108.622 0.00488281H41.3838C35.6699 0.00488281 31.0387 4.63614 31.0387 10.35V129.31H108.778" fill="#464F5D"/>
<path d="M31.0387 15.5225H118.966V129.31H31.0387V15.5225Z" fill="#48887B"/>
<path d="M118.966 15.5225V20.4616C104.484 27.7031 62.5374 53.7707 31.0387 123.466V15.5225H118.966Z" fill="#48887B"/>
<path d="M80.1755 142.242H69.8304C68.4023 142.242 67.2442 141.084 67.2442 139.656C67.2442 138.227 68.4023 137.069 69.8304 137.069H80.1755C81.6037 137.069 82.7607 138.227 82.7607 139.656C82.7607 141.084 81.6037 142.242 80.1755 142.242Z" fill="#BDC3C7"/>
<path d="M93.1057 90.5197H82.7606V80.1746C82.7606 78.7465 81.6037 77.5884 80.1755 77.5884H69.8304C68.4023 77.5884 67.2442 78.7465 67.2442 80.1746V90.5197H56.9002C55.4721 90.5197 54.314 91.6767 54.314 93.1049V103.45C54.314 104.878 55.4721 106.036 56.9002 106.036H67.2442V116.38C67.2442 117.808 68.4023 118.966 69.8304 118.966H80.1755C81.6037 118.966 82.7606 117.808 82.7606 116.38V106.036H93.1057C94.5339 106.036 95.692 104.878 95.692 103.45V93.1049C95.692 91.6767 94.5339 90.5197 93.1057 90.5197Z" fill="#F2F6F7"/>
<path d="M150 129.31C150 140.737 140.738 149.999 129.311 149.999C117.885 149.999 108.622 140.737 108.622 129.31C108.622 117.885 117.885 108.623 129.311 108.623C140.738 108.623 150 117.885 150 129.31Z" fill="#D1D4D1"/>
<path d="M139.655 129.311C139.655 135.025 135.024 139.656 129.311 139.656C123.599 139.656 118.966 135.025 118.966 129.311C118.966 123.598 123.599 118.967 129.311 118.967C135.024 118.967 139.655 123.598 139.655 129.311Z" fill="#95A5A5"/>
<path d="M98.2785 46.556H95.6921C94.2639 46.556 93.1057 45.3979 93.1057 43.9697C93.1057 42.5414 94.2639 41.3833 95.6921 41.3833H98.2785C99.7067 41.3833 100.864 42.5414 100.864 43.9697C100.864 45.3979 99.7067 46.556 98.2785 46.556Z" fill="white"/>
<path d="M85.3469 46.5558H68.2009C66.7727 46.5558 65.6146 45.3977 65.6146 43.9696C65.6146 42.5414 66.7727 41.3833 68.2009 41.3833H85.3469C86.7751 41.3833 87.9332 42.5414 87.9332 43.9696C87.9332 45.3977 86.7751 46.5558 85.3469 46.5558Z" fill="white"/>
<path d="M90.5195 59.486H59.7188C58.2906 59.486 57.1325 58.3279 57.1325 56.8997C57.1325 55.4716 58.2906 54.3135 59.7188 54.3135H90.5195C91.9476 54.3135 93.1057 55.4716 93.1057 56.8997C93.1057 58.3279 91.9476 59.486 90.5195 59.486Z" fill="white"/>
<path d="M33.3782 17.1716L25.4466 13.5302C25.1044 13.3734 24.7108 13.3745 24.3674 13.5313C24.0253 13.6892 23.7689 13.9879 23.6648 14.3507L10.6831 59.6802C9.24005 64.5381 11.5871 69.7175 16.1909 71.8345L24.7691 75.778C29.3821 77.8894 34.8441 76.2838 37.5815 72.0131L63.4579 31.015C63.665 30.7003 63.7245 30.3112 63.6204 29.9484C63.5163 29.5868 63.2599 29.287 62.9166 29.1302L54.7584 25.3927L59.0692 15.9906L68.5938 20.3586C71.2957 21.6083 73.3155 23.9782 74.1222 26.8437C74.9336 29.7344 74.4621 32.8334 72.8303 35.3521L46.1173 77.6331C40.6392 86.1883 29.6979 89.4052 20.4606 85.1767L11.8801 81.2424C2.6485 77.0025 -2.05257 66.6128 0.855271 56.8788L14.2512 10.0914C15.0958 7.20526 17.1419 4.82154 19.8666 3.54786C22.5674 2.28334 25.6869 2.26731 28.4002 3.50438L37.6925 7.76371" fill="#95A5A5"/>
<path d="M30.0545 4.26904L37.9129 7.87151C40.5095 9.0628 41.6492 12.1331 40.4591 14.7297C39.2678 17.3263 36.1986 18.4661 33.6021 17.2748L25.7425 13.6712L30.0545 4.26904Z" fill="#E4C05C"/>
<path d="M59.0711 15.9897L66.8288 19.5476L62.5168 28.9497L54.7591 25.393C52.1626 24.2028 51.0228 21.1325 52.214 18.5359C53.4042 15.9394 56.4745 14.7996 59.0711 15.9897Z" fill="#E4C05C"/>
</g>
<defs>
<clipPath id="clip0">
<rect width="150" height="150" fill="white"/>
</clipPath>
</defs>
</svg>
