<svg width="150" height="150" viewBox="0 0 150 150" fill="none" xmlns="http://www.w3.org/2000/svg">
<path d="M88.6614 87.327C91.7475 89.1612 95.2133 91.3462 98.5726 93.9692C102.949 95.5111 107.807 97.6968 113.39 100.791C114.237 101.26 115.118 101.705 116.014 102.143C116.138 101.217 116.175 100.31 116.126 99.444C115.817 94.0088 112.705 96.0579 111.887 96.5155C110.403 97.3458 108.633 96.662 107.342 95.0848C112.76 92.2646 115.813 86.699 115.817 82.1951C115.82 78.1028 113.259 79.5023 112.457 79.8276C108.387 81.4739 104.456 73.3569 110.067 67.2857C113.121 64.3439 111.575 62.2746 110.659 61.2464C109.62 60.0783 108.487 59.0167 107.398 58.1431C107.077 58.7541 106.827 59.2998 106.52 59.7783C104.287 70.815 97.5554 81.645 88.6614 87.327Z" fill="#664B3A"/>
<path d="M62.9055 87.8787C62.8673 87.856 62.8302 87.8328 62.7924 87.8101C62.7851 88.7894 62.7729 89.9025 62.7895 91.1033C62.828 91.0974 62.8666 91.0926 62.9051 91.0867L62.9055 87.8787Z" fill="#664B3A"/>
<path d="M52.2489 93.6849C55.3144 90.9833 59.7184 89.2063 62.7928 87.8102C54.7922 82.6676 47.7005 72.799 44.9262 62.9422C44.1385 62.2724 43.3794 60.928 42.5741 58.7041C41.7273 59.4374 40.8313 60.3309 40.0161 61.2467C39.1003 62.2753 37.5539 64.3446 40.6073 67.286C46.2191 73.3572 42.2877 81.4745 38.2175 79.8279C37.4151 79.5026 34.8548 78.1035 34.8578 82.1954C34.8618 86.6993 37.9149 92.2649 43.3324 95.0851C42.042 96.6623 40.272 97.3457 38.7881 96.5158C37.9703 96.0582 34.8578 94.0092 34.549 99.4443C34.5053 100.212 34.5302 101.013 34.6231 101.829C35.2992 101.492 35.9646 101.149 36.6098 100.791C42.5437 97.5021 47.6612 95.2379 52.2489 93.6849Z" fill="#664B3A"/>
<path d="M75.1702 128.354C75.1875 128.319 75.2036 128.284 75.2209 128.25C75.2051 128.227 75.1893 128.204 75.1735 128.181C75.1717 128.239 75.1702 128.298 75.1702 128.354Z" fill="#DEC8AE"/>
<path d="M62.7898 91.1034C62.803 92.0729 62.8361 93.0989 62.9055 94.159V91.0869C62.8673 91.0924 62.8287 91.0976 62.7898 91.1034Z" fill="#DEC8AE"/>
<path d="M75.1213 125.109C75.1775 125.773 75.2164 126.463 75.2359 127.18C75.2833 126.496 75.3097 125.774 75.1213 125.109Z" fill="#F2F6F7"/>
<path d="M75.251 128.187C75.251 128.224 75.2521 128.258 75.2521 128.295C75.2521 128.257 75.2532 128.22 75.2532 128.182C75.2524 128.184 75.2513 128.185 75.251 128.187Z" fill="#F2F6F7"/>
<path d="M116.014 102.143C115.118 101.705 114.237 101.261 113.39 100.791C107.807 97.6968 102.949 95.5111 98.5722 93.9692C102.114 97.1588 104.942 100.86 105.501 104.248C101.887 101.611 99.2619 99.8924 90.8647 99.8193C92.8815 102.018 95.708 107.721 96.8085 112.9C91.5951 112.911 83.0668 116.685 75.2521 128.294C75.2418 128.279 75.2312 128.264 75.2209 128.249C75.2036 128.284 75.1875 128.319 75.1702 128.354C75.1702 128.297 75.1717 128.239 75.1735 128.18C67.3797 116.662 58.89 112.911 53.6946 112.9C54.7944 107.721 57.6209 102.018 59.6376 99.8193C51.2408 99.892 48.6152 101.611 45.0022 104.248C45.5776 100.759 48.5594 96.937 52.2492 93.6846C47.6615 95.2375 42.544 97.5022 36.6101 100.791C35.9649 101.149 35.2995 101.492 34.6235 101.829C27.6423 105.307 19.4662 108.065 19.4662 117.927C19.4662 123.95 19.4662 133.209 19.4662 140.233C19.4662 145.825 25.1728 150 33.2134 150C45.7248 150 63.8849 150 75.0005 150C86.1162 150 104.276 150 116.787 150C124.828 150 130.534 145.825 130.534 140.233C130.534 133.209 130.534 123.95 130.534 117.927C130.533 108.364 122.845 105.481 116.014 102.143ZM111.6 136.197C111.6 137.214 110.775 138.04 109.757 138.04H106.832V140.965C106.832 141.983 106.007 142.809 104.989 142.809H103.925H103.757C102.739 142.809 101.914 141.984 101.914 140.965V138.04H98.9879C97.9715 138.04 97.1456 137.215 97.1456 136.197V134.965C97.1456 133.947 97.9715 133.122 98.9879 133.122H101.914V130.197C101.914 129.179 102.739 128.354 103.757 128.354H103.925H104.989C106.007 128.354 106.832 129.179 106.832 130.197V133.122H109.757C110.775 133.122 111.6 133.947 111.6 134.965V136.197Z" fill="#F2F6F7"/>
<path d="M87.7118 87.9111C83.8982 90.1526 79.7156 91.4558 75.3373 91.4558C70.9376 91.4558 66.7345 90.1401 62.9059 87.8784V91.0864V94.1586C63.1115 97.2869 63.6418 100.706 64.9656 103.808C65.526 105.12 66.227 106.377 67.1068 107.529C71.371 113.114 74.4659 117.394 75.121 125.109C75.3097 125.773 75.2833 126.496 75.2356 127.18C75.2444 127.51 75.2499 127.845 75.251 128.186C75.2517 128.185 75.2525 128.183 75.2532 128.182C75.2789 118.445 78.5963 113.815 83.3959 107.529C84.3293 106.307 85.0608 104.968 85.637 103.569C87.8436 98.2101 87.7426 91.9578 87.7118 87.9111Z" fill="#DEC8AE"/>
<path d="M62.7927 87.8102C62.8305 87.833 62.8676 87.8561 62.9058 87.8789C66.7344 90.1406 70.9372 91.4563 75.3372 91.4563C79.7156 91.4563 83.8982 90.1527 87.7118 87.9116C88.1241 87.6703 88.2354 87.5958 88.6614 87.3273C97.5561 81.645 104.287 70.8572 106.52 59.8212C103.502 64.5187 101.183 62.828 100.706 55.2835C100.388 50.267 97.5194 44.4036 91.9017 40.2768C92.8429 42.6509 93.487 45.2926 93.769 48.2017C93.9647 50.2211 93.2913 54.5304 87.7679 54.0574C75.23 52.1717 64.1999 46.3664 58.0978 39.9863C51.7332 44.6768 49.6353 51.5493 49.7484 55.4807C49.8751 59.8837 47.5991 65.281 44.9261 63.0087C47.7008 72.8655 53.9409 82.1393 61.9415 87.2818C62.2052 87.4617 62.2816 87.5385 62.7927 87.8102Z" fill="#F3DBBD"/>
<path d="M75.2356 127.18C75.2161 126.462 75.1775 125.773 75.121 125.109C74.4659 117.394 71.371 113.115 67.1068 107.53C66.227 106.377 65.5259 105.121 64.9656 103.808C63.6418 100.706 63.1111 97.287 62.9059 94.159C62.8365 93.0985 62.9191 92.1338 62.9059 91.1647C62.8893 89.9639 62.8985 89.8798 62.9059 88.9005C62.9081 88.5865 62.9059 88.0955 62.9059 87.8102C62.3572 87.5642 62.5383 87.606 62.113 87.3545C59.0387 88.7507 55.3144 90.9833 52.2492 93.685C48.559 96.937 45.5776 100.759 45.0022 104.249C48.6156 101.611 51.2408 99.8928 59.6376 99.8197C57.6212 102.019 54.7948 107.722 53.6946 112.901C58.89 112.911 67.38 116.662 75.1735 128.181C75.1893 128.204 75.2051 128.226 75.2209 128.25C75.2311 128.265 75.2418 128.279 75.2521 128.295C75.2521 128.258 75.251 128.224 75.251 128.187C75.2499 127.845 75.2447 127.51 75.2356 127.18Z" fill="white"/>
<path d="M87.7118 87.911C87.7426 91.9578 87.8436 98.21 85.637 103.57C85.0612 104.969 84.3293 106.308 83.3958 107.53C78.5967 113.815 75.2788 118.445 75.2531 128.182C75.2531 128.22 75.252 128.257 75.252 128.295C83.0668 116.685 91.5951 112.911 96.8085 112.901C95.7083 107.721 92.8818 102.018 90.8647 99.8195C99.2619 99.8922 101.887 101.611 105.501 104.249C104.942 100.86 102.114 97.1587 98.5722 93.9694C95.4689 91.1752 88.661 87.3271 88.661 87.3271C88.661 87.3271 88.0937 87.6911 87.7118 87.911Z" fill="white"/>
<path d="M44.9258 63.0082C47.5988 65.2805 49.8748 59.8831 49.7481 55.4802C49.635 51.5488 51.7329 44.6763 58.0975 39.9858C64.1996 46.3659 75.2297 52.1716 87.7676 54.0569C93.2909 54.5299 93.9644 50.2205 93.7687 48.2012C93.4867 45.2921 92.8429 42.6504 91.9014 40.2763C97.5191 44.4031 100.388 50.2665 100.706 55.283C101.182 62.8279 103.501 64.5182 106.52 59.8207C106.827 59.3422 107.141 58.8006 107.461 58.1895C107.674 57.7841 107.889 57.353 108.106 56.8889C110.57 51.6285 107.473 34.9722 97.4956 24.0776C96.0069 26.7887 93.1984 28.6909 89.0051 28.6909H76.0508H63.0965C57.9628 28.6909 54.9027 25.8417 53.8018 22.1453C53.7761 22.0586 53.7482 21.9661 53.7207 21.8735C42.9737 30.8869 39.0026 45.7952 41.4912 55.4226C41.8254 56.7155 42.1669 57.8256 42.511 58.7764C43.3166 60.9999 44.1388 62.3384 44.9258 63.0082Z" fill="#664B3A"/>
<path d="M63.0965 28.6911H76.0508H89.0055C93.1988 28.6911 96.0072 26.7889 97.4959 24.0777C97.8297 23.47 98.0989 22.8222 98.3002 22.1451C99.4011 18.4487 101.987 9.71952 101.987 9.71952C103.467 5.31584 101.012 0 95.8787 0H76.0508H56.2229C51.0899 0 48.6343 5.31584 50.1146 9.71952C50.1146 9.71952 52.5793 18.0399 53.7207 21.8733C53.7482 21.9659 53.7757 22.0584 53.8018 22.1451C54.9024 25.8418 57.962 28.6911 63.0965 28.6911ZM68.8236 13.7288C68.8236 12.7112 69.6491 11.8861 70.6659 11.8861H73.5919V8.96122C73.5919 7.94329 74.4167 7.11815 75.435 7.11815H75.6024H76.667C77.6845 7.11815 78.5097 7.94292 78.5097 8.96122V11.8861H81.4349C82.4525 11.8861 83.278 12.7112 83.278 13.7288V14.9612C83.278 15.9787 82.4529 16.8043 81.4349 16.8043H78.5097V19.7291C78.5097 20.7471 77.6849 21.5729 76.667 21.5729H75.6024H75.435C74.417 21.5729 73.5919 20.7474 73.5919 19.7291V16.8043H70.6659C69.6491 16.8043 68.8236 15.9791 68.8236 14.9612V13.7288Z" fill="#F2F6F7"/>
<path d="M70.6659 16.8043H73.5919V19.7292C73.5919 20.7471 74.4167 21.573 75.435 21.573H75.6024H76.667C77.6845 21.573 78.5097 20.7475 78.5097 19.7292V16.8043H81.4349C82.4525 16.8043 83.278 15.9791 83.278 14.9612V13.7288C83.278 12.7113 82.4529 11.8861 81.4349 11.8861H78.5097V8.96123C78.5097 7.9433 77.6849 7.11816 76.667 7.11816H75.6024H75.435C74.417 7.11816 73.5919 7.94293 73.5919 8.96123V11.8861H70.6659C69.6491 11.8861 68.8236 12.7113 68.8236 13.7288V14.9612C68.8236 15.9791 69.6494 16.8043 70.6659 16.8043Z" fill="#E74424"/>
<path d="M109.757 133.122H106.832V130.197C106.832 129.179 106.007 128.354 104.989 128.354H103.925H103.757C102.739 128.354 101.914 129.179 101.914 130.197V133.122H98.9879C97.9715 133.122 97.1456 133.947 97.1456 134.965V136.197C97.1456 137.214 97.9715 138.04 98.9879 138.04H101.914V140.965C101.914 141.983 102.739 142.809 103.757 142.809H103.925H104.989C106.007 142.809 106.832 141.984 106.832 140.965V138.04H109.757C110.775 138.04 111.6 137.215 111.6 136.197V134.965C111.6 133.947 110.775 133.122 109.757 133.122Z" fill="#E74424"/>
</svg>
