<svg width="150" height="150" viewBox="0 0 150 150" fill="none" xmlns="http://www.w3.org/2000/svg">
<path d="M66.5675 109.849C66.6439 109.909 66.7192 109.971 66.7943 110.032L63.7916 103.085C62.8012 103.806 61.951 104.42 61.3434 104.852C64.3811 106.265 66.2816 108.517 66.5675 109.849Z" fill="#48887B"/>
<path d="M55.663 103.372C55.858 100.993 56.106 98.3873 56.2713 96.7056C55.8778 96.8206 55.4808 96.9409 55.0785 97.0672C55.1316 97.6903 55.2625 98.4708 55.3612 99.4488C55.473 100.554 55.6039 101.862 55.663 103.372Z" fill="#48887B"/>
<path d="M110.796 104.117C108.903 103.068 107.101 102.134 105.375 101.296C106.21 104.291 106.574 107.465 106.522 109.691C106.521 109.721 106.521 109.751 106.52 109.781C110.542 110.974 113.477 114.695 113.477 119.105C113.477 124.476 109.122 128.831 103.751 128.831C98.3793 128.831 94.0247 124.476 94.0247 119.105C94.0247 113.733 98.3793 109.379 103.751 109.379C103.768 109.379 103.785 109.38 103.802 109.38C103.851 106.408 103.535 102.754 102.453 99.9376C99.5555 98.6546 96.8847 97.6653 94.3796 96.9014C94.5572 98.7155 94.8187 101.475 95.0115 103.9C95.3321 107.929 91.8115 106.521 90.1329 105.437C89.894 105.283 89.3435 104.894 88.5951 104.356L75.9767 131.278L71.3917 120.668C71.2813 120.846 71.1468 121.005 70.9918 121.141C71.0194 121.569 71.035 122.001 71.035 122.437C71.035 125.964 70.1409 129.307 68.5157 131.848C67.5717 133.325 66.4111 134.455 65.104 135.204C65.1118 135.281 65.1168 135.36 65.1168 135.44C65.1168 136.644 64.1908 137.62 63.0493 137.62C61.9078 137.62 59.9497 136.644 59.9497 135.44C59.9497 134.235 61.9082 133.26 63.0493 133.26C63.4598 133.26 63.8412 133.388 64.1625 133.605C67.4832 131.778 69.2467 126.996 69.2467 122.437C69.2467 122.149 69.2375 121.865 69.2244 121.581C68.4237 121.383 67.7833 120.684 67.6686 119.772C66.951 114.045 62.4715 110.79 55.3909 110.842C55.3867 110.842 55.381 110.842 55.3761 110.842C55.363 110.842 55.3527 110.84 55.3403 110.84C48.8202 111.081 44.7125 114.293 44.0286 119.754C43.9146 120.665 43.2742 121.365 42.4738 121.563C42.4607 121.846 42.4515 122.131 42.4515 122.418C42.4515 126.977 44.2143 131.759 47.534 133.586C47.856 133.368 48.2374 133.24 48.6479 133.24C49.7897 133.24 51.7489 134.216 51.7489 135.421C51.7489 136.625 49.7897 137.602 48.6479 137.602C47.5064 137.602 46.5801 136.625 46.5801 135.421C46.5801 135.341 46.585 135.262 46.5928 135.184C45.2861 134.435 44.1255 133.306 43.1812 131.829C41.5563 129.287 40.6622 125.945 40.6622 122.417C40.6622 121.982 40.6778 121.549 40.7054 121.122C40.187 120.665 39.8937 119.949 39.9885 119.192C40.4372 115.613 42.0025 112.553 44.5169 110.336C44.502 110.287 44.4939 110.234 44.4939 110.176C44.4939 108.553 47.7534 104.815 52.9505 103.821C52.9031 102.264 52.7708 100.926 52.6494 99.7207C52.5854 99.0867 52.5263 98.4972 52.4881 97.9452C48.546 99.3715 44.1843 101.357 39.2044 104.116C32.3913 107.892 23.2189 110.008 23.2189 120.095C23.2189 125.711 23.2189 134.344 23.2189 140.894C23.2189 146.107 28.5395 150 36.0369 150C47.7028 150 64.6356 150 75.0001 150C85.3646 150 102.297 150 113.963 150C121.461 150 126.781 146.107 126.781 140.894C126.781 134.344 126.781 125.71 126.781 120.095C126.782 110.009 117.609 107.893 110.796 104.117Z" fill="#48887B"/>
<path d="M75.3238 94.6108C75.3181 94.6108 75.3125 94.6112 75.3068 94.6112C75.3012 94.6154 75.2941 94.6207 75.2863 94.6264C74.8475 94.9512 68.0592 99.9771 63.7916 103.084L66.7943 110.032C66.9142 110.13 67.0345 110.228 67.1513 110.33C69.6826 112.547 71.259 115.618 71.7083 119.21C71.7748 119.742 71.6496 120.253 71.3913 120.669L75.9763 131.278L88.5947 104.356C84.8083 101.633 75.8514 95.0015 75.345 94.6264C75.3365 94.6204 75.3291 94.6151 75.3238 94.6108Z" fill="white"/>
<path d="M75.2863 94.5875L75.3156 94.6048L75.345 94.5875L86.8719 87.6683L86.9076 87.7037V81.9397C83.3378 84.0486 79.4183 85.2756 75.316 85.2756C71.2136 85.2756 67.2946 84.0486 63.7244 81.9397V87.7037L63.7598 87.6686L75.2863 94.5875Z" fill="#DEC8AE"/>
<path d="M75.3157 94.6047C75.3157 94.6047 75.3122 94.6072 75.3069 94.6115C75.3125 94.6115 75.3182 94.6111 75.3239 94.6111C75.3193 94.6072 75.3157 94.6047 75.3157 94.6047Z" fill="#DEC8AE"/>
<path d="M86.9074 81.9391C95.3981 76.9232 101.913 66.9174 104.224 56.5611C103.705 55.4281 103.122 53.5694 102.442 50.9552C102.322 51.687 102.25 52.3256 102.267 52.8093C102.384 56.2776 99.5744 60.0729 99.54 52.7106C99.5114 46.3519 88.8107 31.4356 88.1399 31.0361C84.667 33.8449 75.63 39.0738 68.7575 40.6463C67.593 40.9127 65.6268 40.7595 67.0212 39.583C68.2225 38.5693 68.8244 37.2378 69.2585 35.8925C69.7546 34.3555 63.2617 39.8891 58.4882 42.3939C57.2752 43.0301 54.7467 44.1209 56.6341 41.872C57.7762 40.5111 57.8767 39.548 57.9514 38.4826C51.1645 42.1943 51.2809 47.2548 51.2912 53.0354C51.2993 58.0832 48.5613 59.6076 48.2397 55.1521C47.8611 56.9241 47.3923 58.051 46.9001 58.5393C49.5581 68.1746 55.7757 77.243 63.7242 81.9388C67.294 84.0476 71.2131 85.2747 75.3158 85.2747C79.4185 85.2747 83.3376 84.048 86.9074 81.9391Z" fill="#F3DBBD"/>
<path d="M100.509 96.8014C101.335 97.5862 101.969 98.6792 102.452 99.9378C103.534 102.754 103.85 106.408 103.802 109.38C104.746 109.385 105.657 109.525 106.52 109.781C106.52 109.751 106.521 109.722 106.522 109.692C106.574 107.465 106.21 104.291 105.375 101.297C104.469 98.0462 103.009 95.0078 100.921 93.624C96.9185 90.9706 92.2464 91.0735 89.9423 90.7119L92.6402 93.3865C97.2061 94.113 98.17 94.5783 100.509 96.8014Z" fill="#2B3237"/>
<path d="M48.2395 55.1523C48.5612 59.6078 51.2991 58.0834 51.291 53.0356C51.2811 47.2554 51.1647 42.1945 57.9512 38.4828C57.8766 39.5482 57.7757 40.5113 56.6339 41.8722C54.7466 44.1211 57.2754 43.0303 58.488 42.3941C63.2616 39.8893 69.7548 34.356 69.2584 35.8927C68.8242 37.238 68.2223 38.5695 67.0211 39.5832C65.6266 40.7597 67.5929 40.9129 68.7573 40.6465C75.6299 39.074 84.6668 33.8451 88.1397 31.0363C88.8106 31.4358 99.5112 46.3521 99.5399 52.7108C99.5739 60.0731 102.384 56.2778 102.267 52.8095C102.25 52.3258 102.321 51.6872 102.442 50.9555C103.122 53.5696 103.704 55.4283 104.224 56.5612C105.502 59.3512 106.394 57.7172 107.392 51.9564C107.99 48.503 107.884 39.7053 104.637 31.7373C102.889 27.4481 100.336 23.2895 96.9668 19.841C96.8808 20.1305 96.7994 20.4026 96.7262 20.6488C95.6994 24.0955 92.8464 26.7518 88.0597 26.7518H75.9809H63.9013C59.1146 26.7518 56.2617 24.0955 55.2349 20.6488C55.0388 19.9914 54.7926 19.162 54.5222 18.252C51.3685 20.8735 48.8895 24.1037 47.1391 27.7567C43.4465 35.4628 43.5197 46.0329 43.8141 50.1965C44.2936 56.977 45.67 59.7603 46.9003 58.5399C47.3921 58.0516 47.8609 56.9246 48.2395 55.1523Z" fill="#664B3A"/>
<path d="M63.9012 26.7517H75.9808H88.06C92.8466 26.7517 95.6996 24.0954 96.7264 20.6487C96.7997 20.4025 96.8811 20.1304 96.967 19.8409C98.0862 16.0786 100.165 9.06241 100.165 9.06241C101.544 4.95616 99.2546 0 94.4686 0H75.9808H57.4926C52.7062 0 50.4169 4.95616 51.7969 9.06241C51.7969 9.06241 53.3753 14.3919 54.5221 18.2518C54.7924 19.1619 55.0387 19.9913 55.2347 20.6487C56.2616 24.0951 59.1149 26.7517 63.9012 26.7517ZM70.9602 11.0828H73.6879V8.35545C73.6879 7.40611 74.4575 6.63723 75.4061 6.63723H75.5625H76.555C77.5044 6.63723 78.2733 7.40611 78.2733 8.35545V11.0828H81.001C81.9503 11.0828 82.7192 11.852 82.7192 12.8007V13.9499C82.7192 14.8989 81.9503 15.6678 81.001 15.6678H78.2733V18.3951C78.2733 19.3445 77.5044 20.1137 76.555 20.1137H75.5625H75.4061C74.4572 20.1137 73.6879 19.3441 73.6879 18.3951V15.6678H70.9602C70.0116 15.6678 69.2423 14.8986 69.2423 13.9499V12.8007C69.242 11.852 70.0116 11.0828 70.9602 11.0828Z" fill="#48887B"/>
<path d="M69.2422 13.9504C69.2422 14.8994 70.0118 15.6683 70.9601 15.6683H73.6878V18.3956C73.6878 19.345 74.4574 20.1142 75.406 20.1142H75.5624H76.555C77.5043 20.1142 78.2732 19.3446 78.2732 18.3956V15.6683H81.0009C81.9502 15.6683 82.7191 14.899 82.7191 13.9504V12.8011C82.7191 11.8525 81.9502 11.0833 81.0009 11.0833H78.2732V8.35592C78.2732 7.40658 77.5043 6.6377 76.555 6.6377H75.5624H75.406C74.4571 6.6377 73.6878 7.40658 73.6878 8.35592V11.0833H70.9601C70.0115 11.0833 69.2422 11.8525 69.2422 12.8011V13.9504Z" fill="#E74424"/>
<path d="M103.751 109.29C98.3302 109.29 93.936 113.684 93.936 119.105C93.936 124.525 98.3302 128.92 103.751 128.92C109.171 128.92 113.566 124.525 113.566 119.105C113.566 114.655 110.604 110.9 106.545 109.696C105.675 109.438 104.755 109.296 103.802 109.291C103.785 109.291 103.768 109.29 103.751 109.29ZM111.794 119.105C111.794 123.547 108.193 127.149 103.751 127.149C99.3079 127.149 95.7073 123.547 95.7073 119.105C95.7073 114.663 99.3079 111.061 103.751 111.061C108.193 111.061 111.794 114.663 111.794 119.105Z" fill="#E0DCD3"/>
<path d="M95.7207 119.105C95.7207 123.54 99.3153 127.135 103.751 127.135C108.186 127.135 111.78 123.54 111.78 119.105C111.78 114.67 108.186 111.075 103.751 111.075C99.3153 111.075 95.7207 114.67 95.7207 119.105ZM107.555 119.105C107.555 121.206 105.851 122.909 103.751 122.909C101.65 122.909 99.9469 121.206 99.9469 119.105C99.9469 117.004 101.65 115.301 103.751 115.301C105.851 115.301 107.555 117.004 107.555 119.105Z" fill="#2B3237"/>
<path d="M103.751 122.91C105.852 122.91 107.556 121.206 107.556 119.105C107.556 117.003 105.852 115.3 103.751 115.3C101.649 115.3 99.9456 117.003 99.9456 119.105C99.9456 121.206 101.649 122.91 103.751 122.91Z" fill="#1B2327"/>
<path d="M41.7433 121.605C41.3459 121.549 40.9921 121.375 40.7058 121.123C40.6782 121.551 40.6627 121.983 40.6627 122.419C40.6627 125.946 41.5568 129.289 43.1816 131.831C44.1256 133.308 45.2862 134.437 46.5933 135.185C46.6623 134.514 47.0211 133.935 47.5341 133.587C44.2145 131.76 42.4516 126.978 42.4516 122.419C42.4516 122.132 42.4608 121.848 42.4739 121.565C42.2408 121.622 41.9948 121.639 41.7433 121.605Z" fill="#2B3237"/>
<path d="M69.2241 121.582C69.2372 121.865 69.2464 122.15 69.2464 122.437C69.2464 126.997 67.4829 131.779 64.1622 133.605C64.6759 133.953 65.0347 134.532 65.1037 135.204C66.4104 134.456 67.5714 133.326 68.5154 131.848C70.1402 129.307 71.0347 125.964 71.0347 122.438C71.0347 122.001 71.0191 121.57 70.9915 121.142C70.7056 121.393 70.3521 121.567 69.9558 121.622C69.7036 121.657 69.4573 121.639 69.2241 121.582Z" fill="#2B3237"/>
<path d="M46.5932 135.185C46.5855 135.263 46.5805 135.342 46.5805 135.422C46.5805 136.626 47.5068 137.603 48.6483 137.603C49.7901 137.603 51.7493 136.626 51.7493 135.422C51.7493 134.217 49.7901 133.241 48.6483 133.241C48.2379 133.241 47.8561 133.369 47.5344 133.587C47.021 133.934 46.6622 134.513 46.5932 135.185Z" fill="#E6A123"/>
<path d="M64.162 133.605C63.8404 133.388 63.459 133.26 63.0489 133.26C61.9074 133.26 59.9493 134.235 59.9493 135.44C59.9493 136.644 61.9078 137.62 63.0489 137.62C64.1903 137.62 65.1163 136.644 65.1163 135.44C65.1163 135.36 65.1117 135.281 65.1036 135.204C65.0346 134.531 64.6754 133.952 64.162 133.605Z" fill="#E6A123"/>
<path d="M55.6464 103.576C58.1303 104.141 57.6438 103.831 61.3434 104.852C61.951 104.42 62.8012 103.806 63.7916 103.084C68.0592 99.9768 74.8475 94.9513 75.2863 94.6264C75.2937 94.6208 75.3012 94.6155 75.3068 94.6112C75.3121 94.6073 75.3157 94.6045 75.3157 94.6045L75.2863 94.5872L63.724 87.6318L56.4506 94.9138C56.4506 94.9138 56.3784 95.6158 56.2712 96.7056C56.106 98.3873 55.858 100.993 55.663 103.372C55.6573 103.44 55.6517 103.508 55.6464 103.576Z" fill="#E0DCD3"/>
<path d="M75.3452 94.5874L75.3158 94.6047C75.3158 94.6047 75.3193 94.6072 75.3239 94.6107C75.3296 94.615 75.337 94.6203 75.3452 94.6263C75.8515 95.001 84.8085 101.632 88.5949 104.356C89.3432 104.894 89.8938 105.283 90.1326 105.437C91.8112 106.522 95.3319 107.929 95.0113 103.9C94.8185 101.475 94.557 98.7156 94.3793 96.9015C94.2619 95.7009 94.1808 94.9133 94.1808 94.9133L92.6402 93.3861L89.9423 90.7115L86.9071 87.6423L75.3452 94.5874Z" fill="#E0DCD3"/>
<path d="M52.9507 103.822C53.7713 103.666 54.6381 103.575 55.55 103.574C55.5822 103.574 55.6137 103.575 55.6459 103.576C55.6515 103.508 55.6568 103.44 55.6625 103.372C55.6034 101.861 55.4725 100.554 55.361 99.4487C55.262 98.4707 55.1314 97.6901 55.0783 97.067C55.0238 96.4284 55.0511 95.9553 55.2797 95.6107C55.5769 95.1627 55.395 94.9044 56.4505 94.9132C58.3658 93.0149 59.3905 92.0493 59.3905 92.0493C58.7108 92.2443 57.5654 92.165 56.9508 92.1569C55.7839 92.1505 54.3353 92.1328 53.1973 93.8507C52.4557 94.9702 52.3747 96.2847 52.4886 97.946C52.5265 98.4979 52.5859 99.0878 52.65 99.7215C52.771 100.927 52.9033 102.266 52.9507 103.822Z" fill="#2B3237"/>
<path d="M56.1333 106.526C56.1998 106.526 56.2678 106.526 56.3357 106.526C56.4702 106.526 56.6011 106.542 56.7292 106.57C60.708 106.747 64.0082 107.847 66.5675 109.849C66.2816 108.517 64.3815 106.265 61.3435 104.851C59.9657 104.295 57.5331 103.565 55.6464 103.576C55.6142 103.576 55.5827 103.574 55.5505 103.574C54.6387 103.574 53.7718 103.665 52.9513 103.822C47.7541 104.816 44.4946 108.554 44.4946 110.177C44.4946 110.235 44.5028 110.288 44.5176 110.338C44.5275 110.329 44.5364 110.32 44.5463 110.311C47.4138 107.799 51.3116 106.526 56.1333 106.526Z" fill="#C3BFB8"/>
<path d="M71.7079 119.21C71.2585 115.618 69.6822 112.547 67.1508 110.33C67.0341 110.228 66.9138 110.13 66.7938 110.032C66.7188 109.97 66.6434 109.909 66.567 109.849C64.0077 107.847 60.7075 106.747 56.7286 106.57C56.6009 106.543 56.47 106.527 56.3352 106.527C56.2672 106.526 56.1993 106.526 56.1328 106.526C51.3114 106.526 47.4132 107.799 44.5454 110.312C44.5355 110.32 44.5267 110.329 44.5167 110.338C42.0024 112.554 40.4367 115.614 39.9884 119.193C39.8935 119.95 40.1872 120.667 40.7052 121.123C40.9915 121.375 41.3457 121.549 41.7427 121.604C41.9939 121.639 42.2402 121.622 42.4734 121.564C43.2737 121.365 43.9142 120.665 44.0281 119.755C44.7121 114.293 48.8197 111.081 55.3398 110.841C55.3522 110.841 55.3625 110.843 55.3756 110.843C55.3805 110.843 55.3858 110.843 55.3904 110.843C62.471 110.791 66.9502 114.046 67.6681 119.773C67.7828 120.684 68.4232 121.384 69.224 121.582C69.4575 121.64 69.7034 121.657 69.9553 121.622C70.3516 121.567 70.7051 121.393 70.991 121.141C71.146 121.005 71.2808 120.846 71.3908 120.669C71.6495 120.253 71.7747 119.742 71.7079 119.21Z" fill="#E0DCD3"/>
</svg>
