<svg width="21" height="21" viewBox="0 0 21 21" fill="none" xmlns="http://www.w3.org/2000/svg">
<g clip-path="url(#clip0)">
<path d="M7.90617 19.1125L8.87731 20.195L19.6169 10.5577C19.7737 10.4169 19.8618 10.2147 19.8581 10.0039C19.8545 9.79314 19.7595 9.59483 19.5979 9.45877L8.53207 0.197981L7.59888 1.3134L18.0214 10.0356L7.90617 19.1125Z" fill="black"/>
<path d="M0.637576 19.238L1.60875 20.3205L12.3483 10.6832C12.5051 10.5424 12.5932 10.3402 12.5896 10.1294C12.5859 9.91863 12.4909 9.72032 12.3294 9.58426L1.26351 0.32347L0.330324 1.43888L10.7528 10.1611L0.637576 19.238Z" fill="black"/>
</g>
<defs>
<clipPath id="clip0">
<rect x="20.3423" y="19.9971" width="20" height="20" transform="rotate(179.011 20.3423 19.9971)" fill="white"/>
</clipPath>
</defs>
</svg>
