<svg width="30" height="30" viewBox="0 0 30 30" fill="none" xmlns="http://www.w3.org/2000/svg">
<path d="M29.4171 23.8548L26.0913 21.6374L23.1348 19.6668C22.5642 19.2871 21.7974 19.4116 21.3761 19.9523L19.5467 22.3042C19.1537 22.8145 18.4468 22.9612 17.8832 22.6492C16.6419 21.9586 15.174 21.3085 11.935 18.0654C8.69614 14.8223 8.04183 13.3586 7.35131 12.1172C7.0393 11.5537 7.18596 10.8467 7.69631 10.4538L10.0482 8.62437C10.5888 8.20321 10.7133 7.4364 10.3337 6.86576L8.42356 4.00027L6.14564 0.583354C5.75793 0.00175901 4.98181 -0.172848 4.3824 0.18662L1.75532 1.76266C1.04535 2.18095 0.523461 2.85641 0.297761 3.649C-0.420649 6.26829 -0.565491 12.0463 8.69456 21.3064C17.9546 30.5664 23.7321 30.4211 26.3514 29.7026C27.144 29.477 27.8195 28.9551 28.2377 28.2451L29.8138 25.6181C30.1733 25.0186 29.9987 24.2425 29.4171 23.8548Z" fill="white"/>
<path d="M17.069 4.65507C21.9229 4.66046 25.8566 8.59404 25.862 13.4481C25.862 13.7337 26.0935 13.9653 26.3792 13.9653C26.6649 13.9653 26.8965 13.7338 26.8965 13.4481C26.8905 8.023 22.4941 3.62658 17.069 3.62061C16.7834 3.62061 16.5518 3.85217 16.5518 4.13787C16.5517 4.42345 16.7833 4.65507 17.069 4.65507Z" fill="white"/>
<path d="M17.0685 7.75864C20.2093 7.76233 22.7544 10.3075 22.7581 13.4482C22.7581 13.7338 22.9897 13.9655 23.2754 13.9655C23.561 13.9655 23.7926 13.7339 23.7926 13.4482C23.7883 9.73639 20.7804 6.7284 17.0685 6.72412C16.7829 6.72412 16.5513 6.95568 16.5513 7.24138C16.5513 7.52708 16.7828 7.75864 17.0685 7.75864Z" fill="white"/>
<path d="M17.069 10.8616C18.4966 10.8633 19.6534 12.0202 19.6551 13.4478C19.6551 13.7334 19.8867 13.965 20.1724 13.965C20.458 13.965 20.6897 13.7335 20.6897 13.4478C20.6874 11.4491 19.0677 9.82943 17.069 9.82715C16.7834 9.82715 16.5518 10.0587 16.5518 10.3444C16.5517 10.63 16.7833 10.8616 17.069 10.8616Z" fill="white"/>
</svg>
