<svg width="10" height="10" viewBox="0 0 10 10" fill="none" xmlns="http://www.w3.org/2000/svg">
<path d="M5.74434 5L9.84586 0.898477C10.0514 0.69293 10.0514 0.359688 9.84586 0.15416C9.64031 -0.0513867 9.30705 -0.0513867 9.10153 0.15416L4.99999 4.25568L0.898475 0.15416C0.692928 -0.0513867 0.359687 -0.0513867 0.15416 0.15416C-0.0513671 0.359707 -0.0513866 0.692949 0.15416 0.898477L4.25568 5L0.15416 9.10152C-0.0513866 9.30707 -0.0513866 9.64031 0.15416 9.84584C0.359706 10.0514 0.692948 10.0514 0.898475 9.84584L4.99999 5.74432L9.10149 9.84584C9.30703 10.0514 9.64029 10.0514 9.84582 9.84584C10.0513 9.64029 10.0513 9.30705 9.84582 9.10152L5.74434 5Z" fill="#050F0D"/>
</svg>
