<svg width="30" height="30" viewBox="0 0 30 30" fill="none" xmlns="http://www.w3.org/2000/svg">
<path d="M30 0H0V30H30V0Z" fill="#61A8DE"/>
<path d="M23.6221 6.62243L3.56071 14.4401C2.91092 14.6934 2.95029 15.6258 3.61917 15.8233L8.71698 17.3287L10.6195 23.3655C10.8182 23.9961 11.6173 24.1873 12.0799 23.715L14.7156 21.0238L19.8871 24.8197C20.5199 25.2843 21.4212 24.9392 21.5819 24.1707L25.007 7.7953C25.1748 6.99318 24.3856 6.32489 23.6221 6.62243ZM21.1069 10.2566L11.7885 18.4968C11.6956 18.579 11.6365 18.6926 11.6227 18.8159L11.2639 22.0051C11.2522 22.1091 11.1067 22.1229 11.0756 22.023L9.59954 17.2667C9.53193 17.0489 9.62008 16.813 9.81381 16.6928L20.8179 9.86803C21.0709 9.71097 21.33 10.0593 21.1069 10.2566Z" fill="white"/>
</svg>
