<svg width="127" height="150" viewBox="0 0 127 150" fill="none" xmlns="http://www.w3.org/2000/svg">
<path d="M112.346 12.9067C95.7528 -6.43271 67.4875 8.64974 63.4826 10.9386C50.5997 2.15033 32.6045 -5.58573 18.1467 5.44584C7.72707 13.3648 1.73329 23.6182 0.317278 35.8624C-1.81698 54.31 7.34127 72.2071 12.0984 77.9975C14.5245 80.9269 15.351 95.1852 15.9722 105.599C17.2738 127.776 18.4216 146.933 29.7477 149.336C32.6539 149.954 35.4237 149.451 37.7551 147.894C43.8661 143.82 45.7881 133.612 48.0082 121.803C50.875 106.583 53.5044 95.002 60.2787 95.4601C62.3179 95.5977 63.1857 96.3534 63.7114 96.9932C67.145 101.159 65.6571 113.541 64.5584 122.604C62.9789 135.719 61.6089 147.07 70.2573 149.588C71.035 149.817 71.9968 150 73.0955 150C74.8346 150 76.9175 149.541 79.2064 148.169C92.4804 140.181 102.94 105.691 106.968 87.0835C117.536 78.8665 124.431 66.8515 125.987 53.8519C127.176 43.8269 125.78 28.5848 112.346 12.9067Z" fill="white"/>
</svg>
