<svg width="30" height="30" viewBox="0 0 30 30" fill="none" xmlns="http://www.w3.org/2000/svg">
<path d="M30 0H0V30H30V0Z" fill="#7D3DAF"/>
<path d="M24.4881 9.67002L24.4822 9.64632C24.0029 7.709 21.8424 5.63014 19.8584 5.19765L19.836 5.19304C16.6269 4.58084 13.373 4.58084 10.1645 5.19304L10.1415 5.19765C8.15806 5.63014 5.99757 7.709 5.51768 9.64632L5.51242 9.67002C4.91996 12.3756 4.91996 15.1193 5.51242 17.8248L5.51768 17.8485C5.9771 19.7032 7.9767 21.6865 9.88671 22.232V24.3946C9.88671 25.1773 10.8406 25.5617 11.383 24.9969L13.5741 22.7193C14.0493 22.7459 14.5248 22.7607 15.0003 22.7607C16.6157 22.7607 18.2318 22.608 19.836 22.3019L19.8584 22.2973C21.8424 21.8648 24.0029 19.7859 24.4822 17.8486L24.4881 17.8249C25.0805 15.1193 25.0805 12.3756 24.4881 9.67002ZM22.7542 17.4325C22.4342 18.6964 20.7938 20.2677 19.4904 20.558C17.7841 20.8825 16.0642 21.0212 14.3461 20.9736C14.3119 20.9727 14.2791 20.9859 14.2553 21.0104C14.0114 21.2607 12.6554 22.6527 12.6554 22.6527L10.9538 24.3991C10.8294 24.5288 10.6108 24.4406 10.6108 24.2615V20.679C10.6108 20.6198 10.5686 20.5695 10.5104 20.5582C10.5101 20.5581 10.5098 20.558 10.5094 20.558C9.20604 20.2677 7.56626 18.6963 7.24568 17.4324C6.71247 14.9869 6.71247 12.5078 7.24568 10.0623C7.56626 8.79839 9.20604 7.22707 10.5094 6.93677C13.4895 6.36998 16.511 6.36998 19.4904 6.93677C20.7945 7.22707 22.4342 8.79839 22.7542 10.0623C23.288 12.5079 23.288 14.987 22.7542 17.4325Z" fill="white"/>
<path d="M17.8356 19.0864C17.6352 19.0256 17.4442 18.9847 17.2669 18.9111C15.4292 18.1487 13.738 17.1651 12.3983 15.6573C11.6365 14.7999 11.0402 13.8319 10.5361 12.8074C10.2971 12.3216 10.0957 11.8168 9.89037 11.3152C9.70315 10.8579 9.97891 10.3853 10.2693 10.0407C10.5417 9.71732 10.8923 9.4698 11.272 9.28739C11.5684 9.145 11.8607 9.22709 12.0772 9.47829C12.5451 10.0214 12.9749 10.5922 13.3229 11.2218C13.5369 11.609 13.4782 12.0823 13.0904 12.3458C12.9961 12.4098 12.9102 12.485 12.8224 12.5574C12.7453 12.6207 12.6729 12.6848 12.6201 12.7706C12.5236 12.9277 12.519 13.1129 12.5811 13.2837C13.0594 14.5982 13.8656 15.6203 15.1886 16.1708C15.4003 16.2589 15.613 16.3614 15.8569 16.333C16.2653 16.2853 16.3976 15.8373 16.6838 15.6032C16.9636 15.3744 17.3211 15.3714 17.6224 15.5621C17.9239 15.7529 18.2161 15.9577 18.5065 16.1646C18.7916 16.3678 19.0755 16.5665 19.3385 16.7981C19.5913 17.0208 19.6784 17.3129 19.536 17.6151C19.2753 18.1686 18.896 18.6291 18.3489 18.923C18.1944 19.0059 18.0098 19.0328 17.8356 19.0864C17.6352 19.0255 18.0098 19.0328 17.8356 19.0864Z" fill="white"/>
<path d="M15.0055 8.65432C17.4092 8.72166 19.3835 10.3169 19.8066 12.6933C19.8786 13.0982 19.9043 13.5122 19.9364 13.9232C19.9499 14.096 19.852 14.2603 19.6654 14.2625C19.4727 14.2648 19.386 14.1036 19.3735 13.9308C19.3488 13.5887 19.3316 13.2452 19.2845 12.906C19.0356 11.1154 17.6078 9.63398 15.8255 9.31609C15.5573 9.26824 15.2828 9.25566 15.0112 9.22716C14.8394 9.20912 14.6145 9.19872 14.5764 8.98524C14.5445 8.80625 14.6956 8.66373 14.866 8.65458C14.9124 8.65202 14.959 8.65412 15.0055 8.65432C17.4092 8.72166 14.959 8.65412 15.0055 8.65432Z" fill="white"/>
<path d="M18.6583 13.3897C18.6543 13.4198 18.6522 13.4903 18.6347 13.5568C18.5709 13.7981 18.205 13.8283 18.1207 13.5848C18.0958 13.5125 18.092 13.4303 18.0919 13.3525C18.0911 12.8434 17.9804 12.3348 17.7237 11.8918C17.4598 11.4365 17.0566 11.0538 16.5837 10.8222C16.2977 10.6822 15.9884 10.5952 15.675 10.5433C15.538 10.5207 15.3996 10.5069 15.262 10.4878C15.0952 10.4646 15.0061 10.3583 15.014 10.1939C15.0214 10.0399 15.1339 9.92907 15.3018 9.93855C15.8534 9.96989 16.3862 10.0891 16.8767 10.3488C17.874 10.8769 18.4436 11.7106 18.6099 12.8237C18.6174 12.8742 18.6295 12.9241 18.6333 12.9748C18.6428 13.0998 18.6487 13.2249 18.6583 13.3897C18.6543 13.4198 18.6487 13.2249 18.6583 13.3897Z" fill="white"/>
<path d="M17.1633 13.3316C16.9622 13.3352 16.8546 13.2239 16.8339 13.0395C16.8195 12.911 16.8081 12.7807 16.7774 12.6556C16.717 12.4093 16.586 12.181 16.3788 12.03C16.281 11.9587 16.1701 11.9068 16.054 11.8733C15.9065 11.8307 15.7533 11.8424 15.6061 11.8064C15.4463 11.7672 15.3579 11.6378 15.383 11.4878C15.4059 11.3514 15.5386 11.2448 15.6877 11.2556C16.6197 11.3229 17.2857 11.8047 17.3808 12.9018C17.3875 12.9792 17.3954 13.061 17.3782 13.1351C17.3488 13.2619 17.2549 13.3254 17.1633 13.3316C16.9622 13.3352 17.2549 13.3254 17.1633 13.3316Z" fill="white"/>
</svg>
