<svg width="30" height="30" viewBox="0 0 30 30" fill="none" xmlns="http://www.w3.org/2000/svg">
<path d="M30 0H0V30H30V0Z" fill="#1BD741"/>
<path d="M4.50865 25.5026L5.97814 20.2835C5.03317 18.6782 4.53564 16.8516 4.53564 14.9753C4.53564 9.19783 9.23591 4.49756 15.0133 4.49756C20.7908 4.49756 25.491 9.19783 25.491 14.9753C25.491 20.7527 20.7908 25.4529 15.0133 25.4529C13.2131 25.4529 11.4504 24.9921 9.89097 24.1172L4.50865 25.5026ZM10.1661 22.211L10.4868 22.4068C11.8465 23.2368 13.4117 23.6756 15.0133 23.6756C19.8107 23.6756 23.7136 19.7726 23.7136 14.9753C23.7136 10.1779 19.8107 6.27492 15.0133 6.27492C10.216 6.27492 6.31301 10.1779 6.31301 14.9753C6.31301 16.6468 6.78809 18.2701 7.68678 19.6695L7.90276 20.0058L7.05654 23.0114L10.1661 22.211Z" fill="white"/>
<path d="M12.07 10.0984L11.3901 10.0613C11.1766 10.0496 10.9671 10.121 10.8057 10.2612C10.4761 10.5474 9.94906 11.1008 9.78719 11.8219C9.5458 12.897 9.91885 14.2136 10.8844 15.5302C11.8499 16.8467 13.6491 18.9532 16.8308 19.8529C17.8561 20.1428 18.6626 19.9474 19.2849 19.5493C19.7778 19.2341 20.1175 18.7281 20.2399 18.156L20.3485 17.649C20.383 17.4878 20.3012 17.3243 20.1515 17.2553L17.8537 16.1962C17.7046 16.1275 17.5277 16.1709 17.4274 16.301L16.5253 17.4703C16.4572 17.5587 16.3405 17.5937 16.2352 17.5567C15.6175 17.3396 13.5482 16.473 12.4128 14.2859C12.3636 14.191 12.3758 14.0759 12.4457 13.995L13.3078 12.9977C13.3958 12.8959 13.4181 12.7527 13.3652 12.6289L12.3747 10.3117C12.322 10.1883 12.2038 10.1057 12.07 10.0984Z" fill="white"/>
</svg>
