<svg xmlns="http://www.w3.org/2000/svg" width="90.166" height="90.156"><g data-name="Group 296"><g data-name="Group 297"><g data-name="Group 296"><path data-name="Path 379" d="M88.663 63.107h-4.508V45.074a6.011 6.011 0 0 0-6.011-6.011h-6.012V24.035a6.011 6.011 0 0 0-6.011-6.011H48.115l7.938-6.161a6.63 6.63 0 1 0-9.828-8.524l-.735 1.286-.735-1.286a6.63 6.63 0 1 0-9.831 8.523l7.932 6.161H24.044a6.011 6.011 0 0 0-6.011 6.011v15.028h-6.011a6.011 6.011 0 0 0-6.011 6.012v18.032H1.5a1.5 1.5 0 0 0-1.5 1.5 7.523 7.523 0 0 0 7.514 7.514h33.061v9.017h-6.012a7.523 7.523 0 0 0-7.514 7.514 1.5 1.5 0 0 0 1.5 1.5h33.064a1.5 1.5 0 0 0 1.5-1.5 7.523 7.523 0 0 0-7.513-7.512h-6.009v-9.016h33.061a7.523 7.523 0 0 0 7.514-7.514 1.5 1.5 0 0 0-1.503-1.502ZM36.771 9.482a3.617 3.617 0 0 1-.727-4.968 3.558 3.558 0 0 1 2.938-1.518h.2a3.562 3.562 0 0 1 2.965 1.821l2.039 3.574a1.5 1.5 0 0 0 2.609 0l2.041-3.569a3.625 3.625 0 1 1 5.364 4.66l-8.716 6.78ZM21.039 27.04h1.5v-3.005h-1.5a3.005 3.005 0 0 1 3.006-3.006h42.076a3.005 3.005 0 0 1 3.006 3.006h-1.5v3.006h1.5v3.99a9 9 0 0 1-4.727-3.875 1.5 1.5 0 0 0-2.576 0 9 9 0 0 1-15.457 0 1.5 1.5 0 0 0-2.576 0 9 9 0 0 1-15.457 0 1.561 1.561 0 0 0-2.576 0 9 9 0 0 1-4.723 3.874v-3.99Zm0 7.12a11.931 11.931 0 0 0 6.011-3.686 12 12 0 0 0 18.033 0 12 12 0 0 0 18.033 0 11.931 11.931 0 0 0 6.011 3.688v4.9H21.039ZM9.017 48.074h3.006v-3H9.017a3.005 3.005 0 0 1 3.006-3.006h66.121a3.005 3.005 0 0 1 3.005 3.006h-3.005v3h3.006v4.508a8.952 8.952 0 0 1-7.729-4.393 1.5 1.5 0 0 0-2.576 0 9 9 0 0 1-15.457 0 1.561 1.561 0 0 0-2.576 0 9 9 0 0 1-15.457 0 1.561 1.561 0 0 0-2.576 0 9 9 0 0 1-15.457 0 1.561 1.561 0 0 0-2.576 0 8.952 8.952 0 0 1-7.728 4.393Zm0 7.514a11.9 11.9 0 0 0 9.017-4.08 12 12 0 0 0 18.033 0 12 12 0 0 0 18.033 0 12 12 0 0 0 18.033 0 11.9 11.9 0 0 0 9.017 4.08v7.514H9.017ZM55.6 84.145a4.517 4.517 0 0 1 4.251 3.006H30.312a4.517 4.517 0 0 1 4.251-3.006ZM43.58 81.14v-9.017h3.006v9.017Zm39.072-12.022H7.514a4.517 4.517 0 0 1-4.251-3.006H86.9a4.518 4.518 0 0 1-4.248 3.006Z" fill="#C78665"/></g></g><g data-name="Group 299"><g data-name="Group 298"><path data-name="Rectangle 86" fill="#C78665" d="M34.563 24.035h3.006v3.006h-3.006z"/></g></g><g data-name="Group 301"><g data-name="Group 300"><path data-name="Rectangle 87" fill="#C78665" d="M52.597 24.035h3.006v3.006h-3.006z"/></g></g><g data-name="Group 303"><g data-name="Group 302"><path data-name="Rectangle 88" fill="#C78665" d="M25.547 45.073h3.006v3.006h-3.006z"/></g></g><g data-name="Group 305"><g data-name="Group 304"><path data-name="Rectangle 89" fill="#C78665" d="M43.58 45.073h3.006v3.006H43.58z"/></g></g><g data-name="Group 307"><g data-name="Group 306"><path data-name="Rectangle 90" fill="#C78665" d="M61.613 45.073h3.006v3.006h-3.006z"/></g></g></g></svg>