<svg xmlns="http://www.w3.org/2000/svg" width="67.163" height="89.5"><g data-name="Group 282"><g data-name="Group 274" fill="#C78665" stroke="#C78665" stroke-width=".5"><path data-name="Path 366" d="M24.425 86.643h-8.86V57.612c4.778-1.275 8.208-9.751 10.46-25.806A261.147 261.147 0 0 0 28.272 1.55a1.3 1.3 0 0 0-1.3-1.3H12.427a1.304 1.304 0 0 0 0 2.607H25.65c-.041 2.293-.181 6.493-.515 11.58H3.387c-.334-5.091-.474-9.288-.515-11.58h2.627a1.303 1.303 0 0 0 0-2.607H1.554a1.3 1.3 0 0 0-1.3 1.3 261.109 261.109 0 0 0 2.245 30.255c2.25 16.055 5.68 24.531 10.458 25.807v29.031H4.099a1.303 1.303 0 0 0 0 2.607h20.326a1.303 1.303 0 0 0 0-2.607Zm-19.346-55.2c-.689-4.912-1.173-9.91-1.51-14.4h21.383c-.336 4.489-.821 9.486-1.51 14.4-3 21.419-7.421 23.732-9.181 23.732S8.084 52.863 5.08 31.443Z"/><path data-name="Path 367" d="M10.396 21.724a1.304 1.304 0 0 0 0 2.607 1.303 1.303 0 0 0 0-2.607Z"/><path data-name="Path 368" d="M13.718 36.697a1.304 1.304 0 0 0 0 2.607 1.303 1.303 0 0 0 0-2.607Z"/><path data-name="Path 369" d="M18.009 32.161a1.304 1.304 0 0 0 0-2.607 1.303 1.303 0 0 0 0 2.607Z"/><path data-name="Path 370" d="M63.066 86.643h-8.861v-29.03c3.246-.854 5.837-4.99 7.891-12.578a1.304 1.304 0 0 0-2.517-.681c-1.888 6.978-4.26 10.821-6.678 10.821-1.76 0-6.177-2.312-9.181-23.732-.689-4.912-1.173-9.91-1.51-14.4h21.375a197.924 197.924 0 0 1-2.511 20.63 1.304 1.304 0 0 0 2.563.478c2.719-14.587 3.275-32.579 3.275-36.6a1.3 1.3 0 0 0-1.3-1.3H40.195a1.3 1.3 0 0 0-1.3 1.3 261.092 261.092 0 0 0 2.248 30.252c2.252 16.055 5.682 24.531 10.46 25.806v29.034h-8.866a1.304 1.304 0 0 0 0 2.607h20.329a1.303 1.303 0 0 0 0-2.607Zm1.225-83.785c-.043 2.335-.189 6.534-.521 11.58H42.028c-.334-5.091-.474-9.288-.515-11.58Z"/><path data-name="Path 371" d="M48.184 30.1a1.304 1.304 0 0 0 0-2.607 1.303 1.303 0 0 0 0 2.607Z"/><path data-name="Path 372" d="M56.904 33.672a1.304 1.304 0 0 0 0-2.607 1.303 1.303 0 0 0 0 2.607Z"/><path data-name="Path 373" d="M55.52 21.449a1.304 1.304 0 0 0 0 2.607 1.303 1.303 0 0 0 0-2.607Z"/><path data-name="Path 374" d="M52.902 45.761a1.304 1.304 0 0 0 0-2.607 1.303 1.303 0 0 0 0 2.607Z"/><path data-name="Path 375" d="M33.093 61.355a1.306 1.306 0 0 0 .986 0c.246-.1 6.031-2.545 6.094-7.188a4.268 4.268 0 0 0-4.065-4.379 3.892 3.892 0 0 0-2.527.943 3.893 3.893 0 0 0-2.527-.943 4.226 4.226 0 0 0-4.065 4.362c0 4.687 5.855 7.104 6.104 7.205Zm-2.039-8.964a1.476 1.476 0 0 1 1.316 1 1.314 1.314 0 0 0 2.422 0 1.476 1.476 0 0 1 1.316-1 1.653 1.653 0 0 1 1.458 1.737c-.029 2.145-2.547 3.857-3.983 4.581-1.159-.582-3.987-2.242-3.987-4.563a1.629 1.629 0 0 1 1.458-1.755Z"/><path data-name="Path 376" d="M40.703 67.741a4.928 4.928 0 0 0-7.122-.006 4.984 4.984 0 0 0-3.553-1.519 5.413 5.413 0 0 0-5.187 5.6c0 6.244 7.915 9.51 8.252 9.647a1.306 1.306 0 0 0 .986 0c.333-.138 8.158-3.442 8.242-9.625a5.745 5.745 0 0 0-1.618-4.097Zm-4.187 9.257a17.143 17.143 0 0 1-2.942 1.828 16.811 16.811 0 0 1-2.916-1.782c-2.129-1.638-3.209-3.4-3.209-5.224a2.814 2.814 0 0 1 2.579-3 2.6 2.6 0 0 1 2.342 1.743 1.314 1.314 0 0 0 2.422 0 2.6 2.6 0 0 1 2.343-1.743 2.843 2.843 0 0 1 2.579 2.979c-.025 1.811-1.101 3.559-3.194 5.199Z"/></g></g></svg>