<svg xmlns="http://www.w3.org/2000/svg" width="89.507" height="94.262"><g data-name="Group 294"><g data-name="Group 295"><g data-name="Group 294"><path data-name="Path 378" d="M88.124 3.476A6.637 6.637 0 0 0 81.446.377c-2.583.453-4.37 2.61-5.36 4.917a14.729 14.729 0 0 0-4.41-2.185 15.227 15.227 0 0 0-5.23-.619 13.242 13.242 0 0 0-5.418 1 5.973 5.973 0 0 0-3.918 5.441 4.266 4.266 0 0 0 1.048 2.675 9.87 9.87 0 0 0-.516 9.707 9.289 9.289 0 0 0 3.1 3.539c-1.419-.009-2.838.067-4.258.125-1.282.053-2.6.044-3.893.139a11.585 11.585 0 0 0 2.3-3.751 12.038 12.038 0 0 0-.028-8.754.823.823 0 0 0-.2-.284 6.11 6.11 0 0 0-1.129-6.55c-2.029-2.331-5.334-3.052-8.3-3.012a16.29 16.29 0 0 0-8.71 2.622c-2.388 1.52-4.792 3.682-5.7 6.446-.748 2.272-.9 5.419.911 7.254a3.648 3.648 0 0 0 1.357.875 10.563 10.563 0 0 0 4.419 6.9 20.171 20.171 0 0 0-3.823 4.882 20.85 20.85 0 0 0-2.578 6.121h-1.105a92.173 92.173 0 0 0-15.4 1.267 69.242 69.242 0 0 0-7.424 1.57 3.91 3.91 0 0 0-2.358 1.5 3.4 3.4 0 0 0 .008 3.08 5.844 5.844 0 0 1 .542 2.781 13.527 13.527 0 0 1-.826 2.935c-.195.561-.4 1.131-.572 1.708-.969-.936-2.627-2.044-3.441-.726a4.888 4.888 0 0 0-.232 2.564 12.384 12.384 0 0 0 .4 2.776c.787 2.835 3.451 5.735 6.552 5.42-.137.859-.469 1.743-.591 2.613a37.611 37.611 0 0 0-3.936-.293.891.891 0 0 0-.846 1.111c.79 4.482 5.649 6.991 9.857 5.974a1.125 1.125 0 0 0 .167-.055 5.882 5.882 0 0 1 .37 2.333c.071 1.9.308 3.818 2.025 4.952 1.455.962 3.257.86 4.818 1.523.894.38 1.24 1.085 1.754 1.852a5.648 5.648 0 0 0 2.291 2 58.67 58.67 0 0 0 6.7 2.333 26.646 26.646 0 0 0 2.713.876c-.375.26-.747.524-1.111.8a6.214 6.214 0 0 0-2.139 2.08c-.847 1.907 1.248 3.129 2.859 3.176a9.616 9.616 0 0 0 8.861-5.908.725.725 0 0 0 .039-.429 4.8 4.8 0 0 0 1.23-2.987 38.038 38.038 0 0 0 .117-4.856c-.055-3.193-.625-6.658.105-9.8.291-1.255 1.278-2.957 2.835-2.6 1.483.342 2.095 2 2.245 3.338a45.1 45.1 0 0 1 .081 4.908l.011 5.185c0 2.17-.535 5.611 1.456 7.091a.317.317 0 0 0 .045.1 11.274 11.274 0 0 0 4.577 3.63 12.074 12.074 0 0 0 5.733 1.449c1.824-.158 3.253-1.937 2.239-3.685a8.949 8.949 0 0 0-4.111-3.342c1.022-1.816.687-4.269.492-6.244-.727-7.35-1.688-14.673-2.829-21.969a20.468 20.468 0 0 0 5.854-1.161 26.942 26.942 0 0 0 12.381-9.658 36.16 36.16 0 0 0 2.245-3.429 3.293 3.293 0 0 0 4.661 1.2c2.361-1.462 2.351-4.442 2.459-6.892a7.571 7.571 0 0 1 1.038-3.9 10.561 10.561 0 0 0 1.755-3.469c.52-2.654-.617-5.194-1.985-7.4-1.529-2.467-3.564-5.228-2.932-8.237a8.47 8.47 0 0 0 6.954-3.473 7.47 7.47 0 0 0 .383-8.001ZM60.541 5.543a7.585 7.585 0 0 1 4.075-1.672 14.416 14.416 0 0 1 4.236.111 14.642 14.642 0 0 1 4.288 1.436c3.525 1.848 6.034 5.574 5.437 9.661a5.882 5.882 0 0 1-2.119 3.927 3.579 3.579 0 0 1-4.254.1 3.478 3.478 0 0 1-1.151-3.046 5.382 5.382 0 0 1 1.462-3 26.773 26.773 0 0 1-5.117.381 19.017 19.017 0 0 1-4.074-.719c-1.954-.457-4.076-.785-4.414-3.21a4.6 4.6 0 0 1 1.631-3.969Zm-1.375 14.88a8.812 8.812 0 0 1 .072-7.833 9.97 9.97 0 0 0 2.48 1.252 22.838 22.838 0 0 0 7.962.981 4.93 4.93 0 0 0 1.522 6.436 4.621 4.621 0 0 0 2.726.816c-2.073 2.263-3.126 5.323-5.086 7.694-1.109 1.341-3.368 3.347-5.219 2.261-2.105-1.235-1.159-4.1-.534-6.017a9.744 9.744 0 0 0 3.248.494.638.638 0 0 0 0-1.276 9.41 9.41 0 0 1-7.171-4.808Zm2.265 6.446c-.692 1.809-.929 3.812.242 5.475 1.391 1.976 3.791 1.822 5.688.789-.03.061-.062.121-.091.183a5.979 5.979 0 0 0-.268 5.058 35.877 35.877 0 0 1-3.75 3.689c-1.7 1.442-3.75 2.974-6.078 3-2.115.019-4.28-1.719-3.467-3.994a.664.664 0 0 0 .027-.114 5.294 5.294 0 0 0 5.281-3.9 4.977 4.977 0 0 0-1.815-5.133 19.492 19.492 0 0 1 4.231-5.052Zm-11.355 3.568c-1.1-.06-.987 1.788.211 1.563.632-.119.99.425.971.964a4.685 4.685 0 0 0-4.186.221 4.03 4.03 0 0 1 2.888-3.715.839.839 0 0 0 .339-.043 3.138 3.138 0 0 1 .751.04 2.684 2.684 0 0 1 2.13 1.88 2.266 2.266 0 0 1-.861 2.359 3.783 3.783 0 0 0-.257-.235 2.183 2.183 0 0 0-1.986-3.034Zm-8.42-1.715c.32.07.643.126.968.165a11.522 11.522 0 0 0 7.231-1.539q-.169.383-.318.77a4.818 4.818 0 0 0-1.832.886 4.655 4.655 0 0 0-1.05 1.151 5.791 5.791 0 0 0-2.194.28.641.641 0 0 0-.062-.043 33.597 33.597 0 0 1-2.746-1.67Zm1.3 2.58a4.031 4.031 0 0 0-.925 1.2c-.7-.109-1.392-.15-2.1-.192-.347-.021-.7-.037-1.043-.061-.5-.035-.793.038-.842-.537a10.952 10.952 0 0 1 .38-2.327c.1-.6.171-1.192.234-1.79a10.865 10.865 0 0 0 4.289 3.706Zm.478 1.737a4.162 4.162 0 0 1 2.75-1.952 5.659 5.659 0 0 0-.275 2.705.636.636 0 0 0 .078.235 3.9 3.9 0 0 0-.471.623 4.771 4.771 0 0 0-1.256 1.239 2.02 2.02 0 0 1-.834-2.85Zm1.664 3.919a2.459 2.459 0 0 0 1.5 1.864 2.054 2.054 0 0 0 2.751-2.03c-.085-.834-1.394-.852-1.321 0a.708.708 0 0 1-1.256.519 1.339 1.339 0 0 1-.119-1.52 3.053 3.053 0 0 1 2.609-1.471 2.191 2.191 0 0 1 2.348 2 4.1 4.1 0 0 1-1.475 2.948c-1.514 1.367-4.388 1.457-5.152-.809a2.854 2.854 0 0 1-.154-1.023.923.923 0 0 0 .261-.478Zm8.06-1.925a3.533 3.533 0 0 0 1.098-1.206 2.529 2.529 0 0 1 1.12.935c.3.5.393 1.582-.452 1.567-1.072-.019-.871 1.749.2 1.459a2.189 2.189 0 0 0 1.532-2.838 2.894 2.894 0 0 0-2.1-1.785 3.82 3.82 0 0 0 .194-1 3.578 3.578 0 0 1 2.705 4.6 3.341 3.341 0 0 1-2.21 2.17 4.02 4.02 0 0 1-2.661-.2 4.5 4.5 0 0 0 .567-3.702Zm3.705-8.371c1.135-.085 2.268-.165 3.4-.286a13.776 13.776 0 0 0-4.415 4.791 5.131 5.131 0 0 0-1.254-.29 4.191 4.191 0 0 0-2.474-2.607 4.091 4.091 0 0 0-1-.246c.108-.333.207-.671.3-1.01a49.721 49.721 0 0 0 5.436-.352Zm-23.9-9.122a4.686 4.686 0 0 1-1.114-4.481 8.829 8.829 0 0 1 2.533-4.051 15.61 15.61 0 0 1 2.251-1.835 16.669 16.669 0 0 1 8.205-2.806 12.553 12.553 0 0 1 3.16.218c3.033.615 6.672 2.587 5.784 6.263a5.613 5.613 0 0 1-3.682 3.824 8.07 8.07 0 0 1-5.424-.243 14.6 14.6 0 0 1-4.6-3.025c-.858 2.016-1.663 4-2.708 5.924-.86 1.584-3.219 1.332-4.405.212Zm1.66 2.647a5.489 5.489 0 0 0 3.274-1.357c1.529-1.326 2.331-3.706 2.819-5.626a9.939 9.939 0 0 0 6.036 3.07 7.771 7.771 0 0 0 6.6-2.078 9.485 9.485 0 0 1 .7 3.433 9.923 9.923 0 0 1-.9 4.1 9.658 9.658 0 0 1-6.541 5.206c-5.395 1.314-10.016-1.99-11.988-6.748Zm.708 12.332a39.249 39.249 0 0 1 2.162-3.517q-.18.672-.347 1.35a3.644 3.644 0 0 0-.183 2.319 1.79 1.79 0 0 0 1.572.863c1.019.129 2.057.284 3.087.315a3.507 3.507 0 0 0 2.075 3.6 4.071 4.071 0 0 0 .034 1.078 3.6 3.6 0 0 0 .139.552 51.316 51.316 0 0 0-10.749-1.192 46.109 46.109 0 0 1 2.209-5.369Zm20.322 43.957c.194 1.568.386 3.137.552 4.709a8.163 8.163 0 0 1-.106 3.412c-.441 1.306-1.63 1.661-2.88 1.817-.963.121-2.557.441-3.142-.581-.617-1.077-.378-2.831-.424-4.017l-.183-4.8c-.062-1.633-.1-3.269-.19-4.9a9.229 9.229 0 0 0-.822-3.783 3.931 3.931 0 0 0-5.257-2.02c-2.348 1.239-2.8 4.292-3.063 6.663-.388 3.461.072 6.914.026 10.381-.019 1.425-.03 3.029-1.544 3.663a4.9 4.9 0 0 1-2.908.114 2.888 2.888 0 0 0 .269-.489 12.107 12.107 0 0 0 .541-3.539l.457-4.567a614.457 614.457 0 0 0 1.539-17.764 8.1 8.1 0 0 0 5.794-.067c1.715-.578 3.631-1.9 3.505-3.916a18.692 18.692 0 0 0 5.4 1.1c.774 6.195 1.669 12.382 2.436 18.584Zm-18.1-20.868c.636-.628 1.806.084 2.4.587a.725.725 0 0 0 1.115-.144 1.833 1.833 0 0 1 3-.064.663.663 0 0 0 .923 0 .759.759 0 0 1 .644-.176q.275.147.555.284a1.015 1.015 0 0 1 .271.41 1.77 1.77 0 0 1-.524 1.708 6.311 6.311 0 0 1-3.66 1.326 5.223 5.223 0 0 1-3.653-.571 2.63 2.63 0 0 1-1.072-3.359Zm34.248-9.03a26.683 26.683 0 0 1-6.945 6.594 19.037 19.037 0 0 1-8.6 3.072 29.563 29.563 0 0 1-4.787.274c-.733-.053-3.613-.219-3.964-.826a2.294 2.294 0 0 0-2.86-1c-1.739-1.606-3.009-.17-4.64-.113-1.8.063-4.252-1.334-5.963-1.879a24.581 24.581 0 0 0-6.7-.571 84.869 84.869 0 0 0-9.915.514c-.471.049-.489.781 0 .75a58.557 58.557 0 0 1 9.731.234c1.632.169 3.261.35 4.882.607.511.081 1.031.183 1.556.284a50.656 50.656 0 0 0-7.105 3.191c-3.116 1.614-6.178 3.32-9.133 5.215-.445.285-.039.993.417.713a60.515 60.515 0 0 1 9.223-4.726c2.408-.96 4.909-1.7 7.349-2.581a72.054 72.054 0 0 0-6.294 7.335c-2.316 2.824-4.608 5.654-6.779 8.593-.321.435.421 1.014.754.582 2.233-2.888 4.526-5.767 7-8.455 2.24-2.435 4.841-4.63 6.976-7.164a3.664 3.664 0 0 0 1 2.487.943.943 0 0 0-.257.558c-.548 4.946-1.049 9.882-1.448 14.842l-.582 7.231-.153 1.9a4.76 4.76 0 0 1-.2 1.535c-.451.993-2.073.12-2.785-.128-2.192-.765-4.4-1.51-6.569-2.335a5.15 5.15 0 0 1-2.2-1.336 15.062 15.062 0 0 0-1.694-2.228c-1.218-1.016-2.808-1.194-4.284-1.6a3.321 3.321 0 0 1-1.925-1.07 4.647 4.647 0 0 1-.533-2.534c-.074-1.7-.252-3.331-1.468-4.634-1.022-1.095-2.582-1.61-3.526-2.768-1.127-1.383.131-3.5.072-5.074-.069-1.819-1.216-3.029-2.463-4.214-1.346-1.28-2-2.5-1.573-4.382.39-1.731 1.254-3.318 1.528-5.079a6.983 6.983 0 0 0-.012-2.439c-.15-.786-.6-2.024.17-2.618a7.944 7.944 0 0 1 2.766-.812q1.775-.433 3.567-.8a96 96 0 0 1 15.658-1.871c5.194-.184 10.331.36 15.51.462a3.746 3.746 0 0 0 .745.627 3.583 3.583 0 0 0 .326 3.63 54.732 54.732 0 0 0-2.656 5.469 2.091 2.091 0 0 0 .3 2.236 4.6 4.6 0 0 0 2.257.91c1.579.4 3.671 1.3 5-.1 1.08-1.137.951-2.883.928-4.405a18.44 18.44 0 0 0 6.86 1.886c5.53.25 10.458-2.557 13.943-6.624a5.8 5.8 0 0 0 .781.742q-.611.977-1.287 1.893Zm-22.088 4.594c-.354 1.709-2.214.841-3.387.556a5.225 5.225 0 0 1-1.757-.488c-.518-.413.277-1.732.483-2.215l1.448-3.4a9.377 9.377 0 0 0 2.2 1.645q.606.33 1.226.651c-.318 1.076.017 2.137-.213 3.251Zm24.519-8.417c-.115.208-.235.414-.353.621a5.92 5.92 0 0 0-.809-.361q.6-.777 1.126-1.6c.423-.66-.594-1.224-1.037-.606-3.181 4.444-8.01 8.041-13.65 8.19-3.023.08-5.74-1.039-8.428-2.3-2.056-.966-5.458-2.57-4.876-5.321a4.993 4.993 0 0 0 3.805-.184 5.833 5.833 0 0 0 1.461-1.048.855.855 0 0 0 .119.1 4.3 4.3 0 0 0 .694.373 4.408 4.408 0 0 0 2.237 5.568c2.5 1.225 5.364.413 7.523-1.12 4.854-3.445 8.014-7.929 10.551-13.247.259-.544-.538-1.024-.817-.477a33.87 33.87 0 0 1-3.326 5.261c-.494-2.554 1.414-4.985 2.683-7.242.458-.688.881-1.405 1.3-2.129a6.634 6.634 0 0 0 1.255 1.979 9.953 9.953 0 0 0 1.136 1.19 2.548 2.548 0 0 0-.541.364 2.412 2.412 0 0 0-.6.62 3.413 3.413 0 0 0-.426 1.991c-.045.723-.568 1.127-.84 1.774-.95 2.259 1.019 4.971 3.344 4.466-.571 1.011-.994 2.16-1.532 3.138Zm1.529-4.713a1.5 1.5 0 0 1-1.843-.749 2.237 2.237 0 0 1 .423-2.245 2.678 2.678 0 0 0 .4-1.869 1.772 1.772 0 0 1 .325-1.3 1.5 1.5 0 0 1 1.331-.223 2.225 2.225 0 0 1 1.33 1.792c.222 1.346-.531 4.039-1.966 4.595Zm5.383-16.282c1.31 2.515 3.505 5.452 2.633 8.462-.389 1.344-1.426 2.357-2.043 3.588a8.662 8.662 0 0 0-.729 4.148c.035 1.6.326 4.859-1.946 5.2a1.648 1.648 0 0 1-1.562-.678 3.288 3.288 0 0 1-.047-2.734c.66-2.354 2.534-5.6 1.192-7.948a3.464 3.464 0 0 0-1.505-1.418.592.592 0 0 0-.038-.065 19.15 19.15 0 0 0-2.189-2.111 20.677 20.677 0 0 0-1.854-2.047c-.8-.628 5.763-6.55 6.234-7.266a8.3 8.3 0 0 0 .477-.831 13.714 13.714 0 0 0 1.377 3.701Zm-.6-9.762a9.852 9.852 0 0 0-.937-2.688 11.456 11.456 0 0 0-2.52-3.2 4.7 4.7 0 0 1 3.457 5.889Zm5.919-2.142c-1.33 1.468-2.367 2.808-4.489 3.081a6.2 6.2 0 0 0-.081-5.081 5.273 5.273 0 0 0-1.911-1.816c-.213-.125-2.26-1.06-2.4-.749a5.6 5.6 0 0 1 5.428-3.253 5.025 5.025 0 0 1 4.079 2.739 4.855 4.855 0 0 1 .382 1.084 4.466 4.466 0 0 1-1.008 3.997Z" fill="#C78665" stroke="#C78665" stroke-width=".5"/></g></g></g></svg>