<?xml version="1.0" encoding="iso-8859-1"?>
<!-- Uploaded to: SVG Repo, www.svgrepo.com, Generator: SVG Repo Mixer Tools -->
<!DOCTYPE svg PUBLIC "-//W3C//DTD SVG 1.1//EN" "http://www.w3.org/Graphics/SVG/1.1/DTD/svg11.dtd">
<svg fill="#000000" version="1.1" id="Capa_1" xmlns="http://www.w3.org/2000/svg" xmlns:xlink="http://www.w3.org/1999/xlink" 
	 width="800px" height="800px" viewBox="0 0 45.759 45.759"
	 xml:space="preserve">
<g>
	<g>
		<path d="M29.69,19.635c-0.471-0.471-0.967-0.899-1.484-1.287c-1.322,0.488-2.504,1.292-3.445,2.344
			c1.12,0.493,2.169,1.198,3.086,2.115c3.97,3.971,3.97,10.405,0,14.375c-3.97,3.971-10.405,3.971-14.375,0
			c-3.97-3.97-3.97-10.404,0-14.375c1.115-1.115,2.425-1.917,3.82-2.405c0.077-0.21,0.159-0.42,0.245-0.628
			c0.643-1.544,1.517-2.939,2.573-4.153c-2.883-0.024-5.772,0.855-8.207,2.639l-0.439-6.065c-0.014-0.202-0.115-0.384-0.258-0.527
			L9.118,9.581C8.79,9.253,8.307,9.257,7.98,9.585l-7.716,7.716c-0.328,0.328-0.362,0.841-0.034,1.169l2.063,2.063
			c0.143,0.143,0.325,0.235,0.525,0.25l6.123,0.439C4.994,26.586,5.446,34.173,10.3,39.029c5.354,5.354,14.036,5.354,19.389-0.001
			C35.043,33.672,35.045,24.99,29.69,19.635z M2.911,18.794L2.018,17.9l6.535-6.534l0.893,0.893L2.911,18.794z M10.311,19.634
			l-5.487-0.399l5.108-5.108l0.385,5.499C10.314,19.627,10.313,19.631,10.311,19.634z"/>
		<path d="M44.558,10.755l1.134-2.725c0.179-0.429-0.009-0.873-0.438-1.051L35.18,2.787c-0.428-0.178-0.916-0.015-1.094,0.414
			l-1.121,2.694c-0.078,0.186-0.093,0.39-0.03,0.581l1.928,5.827c-6.465-1.604-13.306,1.706-15.943,8.045
			c-2.702,6.492-0.039,13.876,5.955,17.227c0.693-0.388,1.339-0.872,1.917-1.45c0.111-0.112,0.219-0.227,0.323-0.344
			c-5.047-2.226-7.411-8.088-5.282-13.205c2.157-5.183,8.106-7.636,13.291-5.479c5.184,2.157,7.636,8.106,5.479,13.289
			c-1.313,3.157-4.035,5.302-7.132,6.008c-0.549,1.046-1.223,2.029-2.015,2.935c5.415,0.047,10.572-3.138,12.781-8.446
			c2.635-6.329,0.17-13.507-5.508-16.968l5.44-2.719C44.35,11.105,44.48,10.942,44.558,10.755z M36.861,12.966
			c-0.003-0.001-0.007-0.001-0.01-0.002l-1.723-5.225l6.67,2.775L36.861,12.966z M43.338,9.353l-8.532-3.55l0.485-1.166l8.531,3.55
			L43.338,9.353z"/>
	</g>
</g>
</svg>
